<?xml version="1.0" encoding="UTF-8" standalone="no"?>
<svg xmlns:dc="http://purl.org/dc/elements/1.1/" xmlns:cc="http://creativecommons.org/ns#" xmlns:rdf="http://www.w3.org/1999/02/22-rdf-syntax-ns#"
    xmlns="http://www.w3.org/2000/svg" xmlns:xlink="http://www.w3.org/1999/xlink" xmlns:sodipodi="http://sodipodi.sourceforge.net/DTD/sodipodi-0.dtd"
    xmlns:inkscape="http://www.inkscape.org/namespaces/inkscape" id="App_Icon_Kit_A" data-name="App Icon Kit A"
    viewBox="0 0 108 108" version="1.1" sodipodi:docname="App Icon - 108-108.svg" width="108" height="108"
    inkscape:version="0.92.4 (5da689c313, 2019-01-14)">
  <metadata
     id="metadata4044">
    <rdf:RDF>
      <cc:Work
         rdf:about="">
        <dc:format>image/svg+xml</dc:format>
        <dc:type
           rdf:resource="http://purl.org/dc/dcmitype/StillImage" />
        <dc:title>App Icon - 180x180</dc:title>
      </cc:Work>
    </rdf:RDF>
  </metadata>
  <sodipodi:namedview
     pagecolor="#ffffff"
     bordercolor="#666666"
     borderopacity="1"
     objecttolerance="10"
     gridtolerance="10"
     guidetolerance="10"
     inkscape:pageopacity="0"
     inkscape:pageshadow="2"
     inkscape:window-width="2560"
     inkscape:window-height="1017"
     id="namedview4042"
     showgrid="false"
     inkscape:snap-grids="true"
     inkscape:snap-page="true"
     inkscape:zoom="4.7111111"
     inkscape:cx="52.747642"
     inkscape:cy="64.528302"
     inkscape:window-x="-8"
     inkscape:window-y="-8"
     inkscape:window-maximized="1"
     inkscape:current-layer="App_Icon_Kit_A" />
  <defs
     id="defs4034">
    <style
       id="style3989">.cls-1{fill:#58585a;}.cls-2{fill:#ec1e26;}.cls-3{fill:#a01014;}</style>
    <symbol
       id="Icon"
       data-name="Icon"
       viewBox="0 0 988.35 677.59">
      <path
         class="cls-1"
         d="m 677,505.18 10.66,-1.75 q 1.33,4.13 6.9,4.13 4.32,0 4.32,-2.1 a 1.91,1.91 0 0 0 -1,-1.72 11.15,11.15 0 0 0 -3.57,-1.08 q -9.84,-1.73 -12.62,-4.51 a 8.9,8.9 0 0 1 -2.8,-6.54 9.91,9.91 0 0 1 4,-8 q 4,-3.19 11.55,-3.2 11.42,0 15.09,8.39 l -9.53,2.59 q -1.47,-3.43 -6,-3.43 c -2.51,0 -3.76,0.7 -3.76,2.12 a 1.66,1.66 0 0 0 0.85,1.48 11.31,11.31 0 0 0 3.29,1 74.63,74.63 0 0 1 9.53,2.3 10.16,10.16 0 0 1 4.71,3.41 9,9 0 0 1 1.89,5.7 9.84,9.84 0 0 1 -4.6,8.41 q -4.6,3.23 -12.08,3.22 -13.65,0 -16.83,-10.42 z"
         id="path3991"
         inkscape:connector-curvature="0"
         style="fill:#58585a" />
      <path
         class="cls-1"
         d="m 725.45,479.82 v 7.91 h -10.93 v -7.91 z m 0,9.79 v 25.46 h -10.93 v -25.46 z"
         id="path3993"
         inkscape:connector-curvature="0"
         style="fill:#58585a" />
      <path
         class="cls-1"
         d="m 758.39,515.07 h -10.93 v -16 c 0,-1.32 -0.22,-2.16 -0.67,-2.53 a 2.55,2.55 0 0 0 -1.68,-0.55 q -3,0 -3,3.8 v 15.3 H 731.2 v -25.48 h 10.13 v 3.6 q 2.24,-4.12 8,-4.13 a 11.26,11.26 0 0 1 5.14,1.07 6.74,6.74 0 0 1 3,2.75 q 0.9,1.69 0.9,5.87 z"
         id="path3995"
         inkscape:connector-curvature="0"
         style="fill:#58585a" />
      <path
         class="cls-1"
         d="m 780.93,504.81 9.31,0.72 a 11.16,11.16 0 0 1 -4.09,7.27 c -2.3,1.87 -5.34,2.8 -9.14,2.8 a 14.66,14.66 0 0 1 -10.36,-3.67 12.19,12.19 0 0 1 -4,-9.4 12.78,12.78 0 0 1 4,-9.65 14.25,14.25 0 0 1 10.28,-3.8 14.09,14.09 0 0 1 9.15,2.87 10.69,10.69 0 0 1 4.05,7.25 l -9.56,0.72 c -0.4,-2.68 -1.51,-4 -3.34,-4 a 2.71,2.71 0 0 0 -2.56,1.47 11.34,11.34 0 0 0 -0.81,5.09 10.2,10.2 0 0 0 0.81,4.64 2.93,2.93 0 0 0 2.81,1.5 q 2.9,-0.03 3.45,-3.81 z"
         id="path3997"
         inkscape:connector-curvature="0"
         style="fill:#58585a" />
      <path
         class="cls-1"
         d="m 811.87,505.93 10.19,0.63 a 11,11 0 0 1 -4.61,6.4 q -3.72,2.64 -10,2.64 -7,0 -11.23,-3.72 a 11.85,11.85 0 0 1 -4.19,-9.23 12.79,12.79 0 0 1 4.14,-9.64 q 4.13,-3.93 11,-3.93 6.69,0 10.81,3.71 4.12,3.71 4.12,10.09 c 0,0.35 0,0.83 0,1.45 h -18.69 a 6.25,6.25 0 0 0 0.93,3.57 c 0.59,0.78 1.7,1.16 3.34,1.16 2.38,0 3.77,-1.06 4.19,-3.13 z m -0.74,-6.61 c 0,-1.72 -0.39,-2.87 -1.13,-3.46 a 4.2,4.2 0 0 0 -2.74,-0.89 c -2.58,0 -3.88,1.45 -3.88,4.35 z"
         id="path3999"
         inkscape:connector-curvature="0"
         style="fill:#58585a" />
      <path
         class="cls-1"
         d="m 861,507.46 h 8.82 v 7.61 h -28.75 v -7.61 h 9.22 v -16.25 a 35.68,35.68 0 0 1 -8.21,2.5 V 486 q 8,-1.57 10.82,-5.66 h 8.1 z"
         id="path4001"
         inkscape:connector-curvature="0"
         style="fill:#58585a" />
      <path
         class="cls-1"
         d="m 896.71,496.49 q 6.06,2.81 6.06,8.44 a 8.83,8.83 0 0 1 -4.35,7.89 q -4.33,2.77 -11.43,2.78 -7.1,0.01 -10.9,-2.6 a 8,8 0 0 1 -3.8,-6.89 q 0,-5.37 5.83,-7.73 a 7.87,7.87 0 0 1 -4.68,-7.46 9.2,9.2 0 0 1 3.82,-7.5 q 3.81,-3 10.58,-3 a 17.69,17.69 0 0 1 9.87,2.5 7.61,7.61 0 0 1 3.82,6.64 7.25,7.25 0 0 1 -0.86,3.49 10.59,10.59 0 0 1 -3.96,3.44 z m -12.11,5.3 q -2.6,1.45 -2.59,3.55 a 3.11,3.11 0 0 0 1.45,2.6 7,7 0 0 0 4.13,1.05 6.19,6.19 0 0 0 3.32,-0.74 2.22,2.22 0 0 0 1.15,-1.91 c 0,-1.31 -1.07,-2.33 -3.2,-3.09 z m 5.12,-7.91 a 3.39,3.39 0 0 0 2.34,-3.16 3.12,3.12 0 0 0 -1.29,-2.57 5.73,5.73 0 0 0 -3.64,-1 4.23,4.23 0 0 0 -2.62,0.72 2.18,2.18 0 0 0 -0.94,1.78 q 0,2 2.73,3 z"
         id="path4003"
         inkscape:connector-curvature="0"
         style="fill:#58585a" />
      <path
         class="cls-1"
         d="m 929.6,496.49 q 6.06,2.81 6.06,8.44 a 8.85,8.85 0 0 1 -4.34,7.89 q -4.35,2.77 -11.44,2.78 -7.09,0.01 -10.88,-2.6 a 8,8 0 0 1 -3.8,-6.89 q 0,-5.37 5.83,-7.73 a 7.87,7.87 0 0 1 -4.68,-7.46 9.2,9.2 0 0 1 3.82,-7.5 q 3.81,-3 10.58,-3 a 17.66,17.66 0 0 1 9.87,2.5 7.61,7.61 0 0 1 3.82,6.64 7.25,7.25 0 0 1 -0.86,3.49 10.59,10.59 0 0 1 -3.98,3.44 z m -12.11,5.3 q -2.6,1.45 -2.59,3.55 a 3.11,3.11 0 0 0 1.45,2.6 7,7 0 0 0 4.13,1.05 6.19,6.19 0 0 0 3.32,-0.74 2.22,2.22 0 0 0 1.15,-1.91 c 0,-1.31 -1.07,-2.33 -3.2,-3.09 z m 5.12,-7.91 a 3.39,3.39 0 0 0 2.34,-3.16 3.12,3.12 0 0 0 -1.29,-2.57 5.73,5.73 0 0 0 -3.64,-1 4.25,4.25 0 0 0 -2.62,0.72 2.18,2.18 0 0 0 -0.94,1.78 q 0,2 2.73,3 z"
         id="path4005"
         inkscape:connector-curvature="0"
         style="fill:#58585a" />
      <path
         class="cls-1"
         d="m 939.35,506.46 9.59,-1.4 c 0.4,2.1 1.59,3.15 3.59,3.15 a 4,4 0 0 0 3.6,-2 10.41,10.41 0 0 0 1.24,-5.51 c 0,-0.27 0,-0.61 0,-1 a 8.49,8.49 0 0 1 -7.28,3.31 11.87,11.87 0 0 1 -8.38,-3.06 10.1,10.1 0 0 1 -3.31,-7.78 10.59,10.59 0 0 1 3.9,-8.48 q 3.9,-3.29 10.47,-3.29 7.56,0 11.42,4.57 3.86,4.57 3.81,12.03 0,8.25 -4,13.43 -4,5.18 -12,5.18 a 14.31,14.31 0 0 1 -8.59,-2.44 10.1,10.1 0 0 1 -4.06,-6.71 z m 13.26,-10.74 a 4.41,4.41 0 0 0 2.93,-1.07 3.72,3.72 0 0 0 1.26,-3 4.25,4.25 0 0 0 -1.15,-3.13 4.2,4.2 0 0 0 -5.71,-0.08 4.19,4.19 0 0 0 -1.17,3.23 4,4 0 0 0 1.09,3 3.71,3.71 0 0 0 2.75,1.05 z"
         id="path4007"
         inkscape:connector-curvature="0"
         style="fill:#58585a" />
      <path
         class="cls-2"
         d="m 560.41,64.65 c 37.74,25.28 66.26,58.83 87,98.93 5,9.73 17.7,21.68 0.55,31.51 -15.87,9.1 -23.5,-3.19 -30.22,-14.69 -24.54,-42 -61.2,-66.95 -108,-78 -77.39,-18.4 -154.9,16.6 -192.37,86.09 -2.42,4.49 -9,9.53 -13.74,9.56 -62.83,0.39 -125.67,-0.07 -188.51,-0.32 1.11,-6.26 0.76,-13.28 3.56,-18.65 C 150.61,117.73 197.41,70.48 260.49,42.54 351.4,2.27 442.46,4 531.62,50.44 A 75.16,75.16 0 0 0 549,57.3"
         id="path4009"
         inkscape:connector-curvature="0"
         style="fill:#ec1e26" />
      <path
         class="cls-2"
         d="m 170.54,602.45 c -37.78,-27.7 -63.51,-65 -83.23,-106.64 -1.75,-3.71 0.89,-13.33 3.93,-14.66 6.09,-2.67 15.13,-4 20.6,-1.27 6.09,3.07 10,11 14.09,17.38 36,56.23 88.79,80.86 153.84,78.17 63.06,-2.6 112.17,-30.67 143,-87.59 2.76,-5.08 9.54,-11.32 14.49,-11.36 62.87,-0.51 125.75,0 188.62,0.3 -1.39,6.79 -1.2,14.44 -4.39,20.24 -52.49,95.8 -133.37,150.87 -242.03,161.36 -63.74,6.15 -124.77,-4.7 -180.2,-39 -3.35,-2.06 -8.45,-3.3 -12.74,-3.86 0,0 -0.83,-0.65 -0.81,-0.66 -3.22,-2.49 -6.47,-5 -9.72,-7.45 l 0.63,-0.84 c 0,0 -0.44,0.95 -0.43,0.94 z"
         id="path4011"
         inkscape:connector-curvature="0"
         style="fill:#ec1e26" />
      <path
         class="cls-2"
         d="m 62.3,440.1 c -10.59,0 -21.18,0 -31.77,0 C 8.57,440 0.38,434.5 0.17,419.62 0,404.4 8.3,398.35 29.74,398.31 c 22.36,0 44.71,-0.3 67.06,0.1 14.15,0.24 23.54,-5.77 23.5,-20 0,-13.4 -9.81,-19.23 -22.61,-19.47 -12.8,-0.24 -25.88,0.13 -38.82,-0.1 -30.48,-0.53 -56.26,-23.79 -58.6,-52.65 -2.85,-35.3 16.7,-64 49.87,-67.26 30.29,-3 61,-1.84 91.58,-1.63 12.27,0.08 20.25,8.24 20.21,20.22 -0.05,12.63 -7.47,20.71 -21.26,20.73 -23.53,0 -47.06,0 -70.59,0 -19.29,0.07 -29.72,7.28 -29.44,20.17 0.27,12.58 10.84,19.58 30.1,19.72 10,0.08 20,-0.2 30,0.06 34.6,0.88 61,26.53 61.73,59.75 0.72,33.53 -26.49,61.2 -61.35,62.09 -12.93,0.33 -25.88,0.05 -38.82,0.06 z"
         id="path4013"
         inkscape:connector-curvature="0"
         style="fill:#ec1e26" />
      <path
         class="cls-2"
         d="m 437.59,440.1 c -12.33,0 -24.67,0.26 -37,-0.05 -48.21,-1.21 -76.47,-49.7 -52.91,-91.68 4.41,-7.85 3.91,-12.39 -0.35,-20 -21.94,-39.18 1.91,-86.28 46.79,-90.33 28.55,-2.57 57.5,-1.16 86.26,-0.81 13,0.16 21.6,7.67 21.22,20.9 -0.39,14.08 -9.44,20.39 -23.53,20.23 -23.49,-0.26 -47,0.07 -70.48,-0.12 -13.68,-0.11 -25,3.14 -26.58,19 -1.26,12.86 8.78,20.49 26.54,20.81 14.09,0.25 28.19,-0.1 42.28,0.14 13.37,0.22 21.11,6.95 20.83,20.66 -0.28,13.71 -8.2,20 -21.52,20 -14.68,0 -29.36,0.06 -44,0 -13.62,0 -23.79,5.7 -24,19.9 -0.2,14.5 9.77,19.83 23.7,19.6 23.49,-0.37 47,-0.25 70.48,0 17.23,0.15 27.51,8.12 26.43,21.18 -1.35,16.31 -12.26,21.12 -27.14,20.64 -12.34,-0.39 -24.69,-0.07 -37.02,-0.07 z"
         id="path4015"
         inkscape:connector-curvature="0"
         style="fill:#ec1e26" />
      <path
         class="cls-2"
         d="m 610.22,440.09 c -12.34,0 -24.69,0.33 -37,-0.06 -47.29,-1.49 -75.53,-49.61 -52.59,-90.74 4.72,-8.46 4.49,-13.21 -0.11,-21.51 -21.46,-38.75 1.89,-85.25 46,-89.42 29.12,-2.76 58.67,-1.46 88,-0.93 12.78,0.23 21.09,7.78 20.33,21.48 -0.76,13.7 -9.38,19.37 -22.42,19.38 -24.09,0 -48.18,0.12 -72.27,0 -13.94,-0.09 -25.22,3.92 -25.43,19.93 -0.21,16.51 11.89,19.77 25.39,19.92 14.1,0.16 28.2,0 42.3,0.07 13.3,0 21.89,6.68 22,19.87 0.17,13.94 -8.14,21.18 -22.59,20.91 -14.1,-0.25 -28.2,0 -42.31,-0.06 -14.11,-0.06 -25.08,4.47 -24.83,20.46 0.24,15 10.59,19.21 24.15,19 23.49,-0.32 47,0 70.5,-0.12 14.06,-0.07 24.47,4.51 25.52,20.26 0.91,13.84 -8.19,21.26 -25.85,21.53 -12.94,0.2 -25.87,0.04 -38.79,0.03 z"
         id="path4017"
         inkscape:connector-curvature="0"
         style="fill:#ec1e26" />
      <path
         class="cls-2"
         d="m 924.5,440.1 c -12.35,0 -24.71,0.25 -37,-0.05 -47.62,-1.19 -75.83,-48.37 -53.54,-90.26 4.24,-8 5.19,-13 0.39,-21.71 -22,-39.71 2,-86.19 47.18,-90.08 28.61,-2.47 57.59,-1.27 86.38,-0.65 12.81,0.27 21.15,8.06 20.45,21.57 -0.7,13.51 -9.16,19.46 -22.42,19.4 -24.12,-0.1 -48.24,0.19 -72.36,-0.1 -14.24,-0.17 -25.28,4.5 -25.42,20.09 -0.16,16.15 11.84,19.85 25.54,19.84 12.95,0 25.89,0.14 38.83,0 14.06,-0.19 25.09,4 25.16,20.15 0.08,15.8 -10.09,21 -24.56,20.71 -14.11,-0.28 -28.24,-0.21 -42.35,0 -13.73,0.21 -23.25,6.47 -22.68,21 0.55,13.8 10.17,18.5 23.17,18.36 24.11,-0.25 48.23,0 72.35,-0.1 14.43,-0.06 24.7,5.65 24.61,21.08 -0.09,15.43 -10.52,21 -24.9,20.78 C 950.39,440 937.45,440.1 924.5,440.1 Z"
         id="path4019"
         inkscape:connector-curvature="0"
         style="fill:#ec1e26" />
      <path
         class="cls-2"
         d="m 234.3,352.41 c 0,-18.82 -1.05,-37.71 0.3,-56.43 1.1,-15.23 -4.54,-19.85 -18.79,-17.83 -6.34,0.9 -12.92,0.21 -19.38,0.12 -13.27,-0.2 -21.57,-6.93 -21.87,-20.14 -0.31,-13.48 8.6,-20.3 21.33,-20.93 14.66,-0.72 29.39,-0.23 44.09,-0.23 23.53,0 47,-0.25 70.57,0.08 18,0.24 26.85,7.69 25.92,21.55 -1.06,15.93 -11.63,19.67 -25.69,19.82 -34.71,0.38 -34.7,0.63 -34.7,34.62 0,33.99 -0.28,68.22 0.13,102.32 0.16,14 -5.4,22.81 -19.44,24.51 -12.27,1.48 -21.88,-8.64 -22.31,-23.95 -0.58,-21.16 -0.14,-42.34 -0.16,-63.51 z"
         id="path4021"
         inkscape:connector-curvature="0"
         style="fill:#ec1e26" />
      <path
         class="cls-3"
         d="m 186.52,615.56 c 4.29,0.56 6.44,0.74 12.74,3.86 80.7,35.88 116.46,45.11 180.2,39 C 488.12,647.89 569,592.82 621.53,497 c 3.19,-5.8 3,-13.45 4.39,-20.24 2.91,-0.28 5.82,-0.82 8.72,-0.81 23.66,0.08 31.51,11.11 18,30.78 -21.8,31.66 -43.39,64.84 -71.28,90.66 C 476.25,694.68 312,704 194.3,622.46 c -2.83,-1.96 -5.19,-4.59 -7.78,-6.9 z"
         id="path4023"
         inkscape:connector-curvature="0"
         style="fill:#a01014" />
      <path
         class="cls-3"
         d="m 555,61.3 c -6.72,-1 -15.67,-6.9 -21.34,-9.86 C 444.46,5 353.4,3.27 262.49,43.54 199.41,71.48 152.61,118.73 120.68,180.08 c -2.8,5.37 -2.45,12.39 -3.56,18.65 -4.09,0.24 -8.21,1 -12.26,0.65 -18.81,-1.47 -24.08,-9.77 -16,-27 16.7,-35.55 40.72,-65.81 69.41,-92.44 C 263.81,-18 422.3,-25.24 547,54.3 c 2.73,1.77 8,6 8,7 z"
         id="path4025"
         inkscape:connector-curvature="0"
         style="fill:#a01014" />
      <path
         class="cls-2"
         d="m 696.13,339.52 c 0,-24.67 0,-49.34 0,-74 0.06,-19.12 7.08,-28.5 21,-28.32 13.2,0.17 20.68,10.39 20.75,29.13 0.13,37.59 0.71,75.2 -0.3,112.77 -0.4,14.69 2.23,21.36 18.77,19.58 15.68,-1.69 31.68,-0.46 47.54,-0.33 13.46,0.11 23.45,5.56 23.65,20.19 0.21,15.32 -9.38,21.63 -24,21.59 -27.61,-0.08 -55.22,0.21 -82.82,-0.11 -17.55,-0.2 -24.35,-7.16 -24.52,-24.71 -0.2,-25.31 -0.07,-50.53 -0.07,-75.79 z"
         id="path4027"
         inkscape:connector-curvature="0"
         style="fill:#ec1e26" />
      <path
         class="cls-3"
         d="m 176,607.45 c 3.25,2.48 6.5,5 9.72,7.45 -3.27,-2.48 -6.5,-4.96 -9.72,-7.45 z"
         id="path4029"
         inkscape:connector-curvature="0"
         style="fill:#a01014" />
      <path
         class="cls-3"
         d="m 170.54,602.45 5.65,5.1 q -2.83,-2.55 -5.65,-5.1 z"
         id="path4031"
         inkscape:connector-curvature="0"
         style="fill:#a01014" />
    </symbol>
  </defs>
  <title
     id="title4036">App Icon - 180x180</title>
  <g
     id="App_Icon_-_Preview_Sizes"
     data-name="App Icon - Preview Sizes"
     transform="matrix(0.59196705,0,0,0.6362784,-1.0377605,-4.8777573)">
    <use
       width="988.34998"
       height="677.59003"
       transform="matrix(0.18,0,0,0.18,3.7,31.06)"
       xlink:href="#Icon"
       id="use4038"
       x="0"
       y="0" />
  </g>
</svg>
