<svg id="App_Icon_Kit_A" data-name="App Icon Kit A" xmlns="http://www.w3.org/2000/svg" xmlns:xlink="http://www.w3.org/1999/xlink" viewBox="0 0 114 114"><defs><style>.cls-1{fill:#58585a;}.cls-2{fill:#ec1e26;}.cls-3{fill:#a01014;}</style><symbol id="Icon" data-name="Icon" viewBox="0 0 988.35 677.59"><path class="cls-1" d="M677,505.18l10.66-1.75q1.33,4.13,6.9,4.13,4.32,0,4.32-2.1a1.91,1.91,0,0,0-1-1.72,11.15,11.15,0,0,0-3.57-1.08q-9.84-1.73-12.62-4.51a8.9,8.9,0,0,1-2.8-6.54,9.91,9.91,0,0,1,4-8q4-3.19,11.55-3.2,11.42,0,15.09,8.39L700,491.39q-1.47-3.43-6-3.43c-2.51,0-3.76.7-3.76,2.12a1.66,1.66,0,0,0,.85,1.48,11.31,11.31,0,0,0,3.29,1,74.63,74.63,0,0,1,9.53,2.3,10.16,10.16,0,0,1,4.71,3.41,9,9,0,0,1,1.89,5.7,9.84,9.84,0,0,1-4.6,8.41q-4.6,3.23-12.08,3.22Q680.18,515.6,677,505.18Z"/><path class="cls-1" d="M725.45,479.82v7.91H714.52v-7.91Zm0,9.79v25.46H714.52V489.61Z"/><path class="cls-1" d="M758.39,515.07H747.46v-16c0-1.32-.22-2.16-.67-2.53a2.55,2.55,0,0,0-1.68-.55q-3,0-3,3.8v15.3H731.2V489.61h10.13v3.6q2.24-4.12,8-4.13a11.26,11.26,0,0,1,5.14,1.07,6.74,6.74,0,0,1,3,2.75q.9,1.69.9,5.87Z"/><path class="cls-1" d="M780.93,504.81l9.31.72a11.16,11.16,0,0,1-4.09,7.27c-2.3,1.87-5.34,2.8-9.14,2.8a14.66,14.66,0,0,1-10.36-3.67,12.19,12.19,0,0,1-4-9.4,12.78,12.78,0,0,1,4-9.65,14.25,14.25,0,0,1,10.28-3.8,14.09,14.09,0,0,1,9.15,2.87,10.69,10.69,0,0,1,4.05,7.25l-9.56.72c-.4-2.68-1.51-4-3.34-4a2.71,2.71,0,0,0-2.56,1.47,11.34,11.34,0,0,0-.81,5.09,10.2,10.2,0,0,0,.81,4.64,2.93,2.93,0,0,0,2.81,1.5Q780.38,508.59,780.93,504.81Z"/><path class="cls-1" d="M811.87,505.93l10.19.63a11,11,0,0,1-4.61,6.4q-3.72,2.64-10,2.64-7,0-11.23-3.72a11.85,11.85,0,0,1-4.19-9.23,12.79,12.79,0,0,1,4.14-9.64q4.13-3.93,11-3.93,6.69,0,10.81,3.71t4.12,10.09c0,.35,0,.83,0,1.45H803.41a6.25,6.25,0,0,0,.93,3.57c.59.78,1.7,1.16,3.34,1.16C810.06,509.06,811.45,508,811.87,505.93Zm-.74-6.61c0-1.72-.39-2.87-1.13-3.46a4.2,4.2,0,0,0-2.74-.89c-2.58,0-3.88,1.45-3.88,4.35Z"/><path class="cls-1" d="M861,507.46h8.82v7.61H841.07v-7.61h9.22V491.21a35.68,35.68,0,0,1-8.21,2.5V486q8-1.57,10.82-5.66H861Z"/><path class="cls-1" d="M896.71,496.49q6.06,2.81,6.06,8.44a8.83,8.83,0,0,1-4.35,7.89q-4.33,2.77-11.43,2.78T876.09,513a8,8,0,0,1-3.8-6.89q0-5.37,5.83-7.73a7.87,7.87,0,0,1-4.68-7.46,9.2,9.2,0,0,1,3.82-7.5q3.81-3,10.58-3a17.69,17.69,0,0,1,9.87,2.5,7.61,7.61,0,0,1,3.82,6.64,7.25,7.25,0,0,1-.86,3.49A10.59,10.59,0,0,1,896.71,496.49Zm-12.11,5.3q-2.6,1.45-2.59,3.55a3.11,3.11,0,0,0,1.45,2.6,7,7,0,0,0,4.13,1.05,6.19,6.19,0,0,0,3.32-.74,2.22,2.22,0,0,0,1.15-1.91c0-1.31-1.07-2.33-3.2-3.09Zm5.12-7.91a3.39,3.39,0,0,0,2.34-3.16,3.12,3.12,0,0,0-1.29-2.57,5.73,5.73,0,0,0-3.64-1,4.23,4.23,0,0,0-2.62.72,2.18,2.18,0,0,0-.94,1.78q0,2,2.73,3Z"/><path class="cls-1" d="M929.6,496.49q6.06,2.81,6.06,8.44a8.85,8.85,0,0,1-4.34,7.89q-4.35,2.77-11.44,2.78T909,513a8,8,0,0,1-3.8-6.89q0-5.37,5.83-7.73a7.87,7.87,0,0,1-4.68-7.46,9.2,9.2,0,0,1,3.82-7.5q3.81-3,10.58-3a17.66,17.66,0,0,1,9.87,2.5,7.61,7.61,0,0,1,3.82,6.64,7.25,7.25,0,0,1-.86,3.49A10.59,10.59,0,0,1,929.6,496.49Zm-12.11,5.3q-2.6,1.45-2.59,3.55a3.11,3.11,0,0,0,1.45,2.6,7,7,0,0,0,4.13,1.05,6.19,6.19,0,0,0,3.32-.74,2.22,2.22,0,0,0,1.15-1.91c0-1.31-1.07-2.33-3.2-3.09Zm5.12-7.91a3.39,3.39,0,0,0,2.34-3.16,3.12,3.12,0,0,0-1.29-2.57,5.73,5.73,0,0,0-3.64-1,4.25,4.25,0,0,0-2.62.72,2.18,2.18,0,0,0-.94,1.78q0,2,2.73,3Z"/><path class="cls-1" d="M939.35,506.46l9.59-1.4c.4,2.1,1.59,3.15,3.59,3.15a4,4,0,0,0,3.6-2,10.41,10.41,0,0,0,1.24-5.51c0-.27,0-.61,0-1a8.49,8.49,0,0,1-7.28,3.31,11.87,11.87,0,0,1-8.38-3.06,10.1,10.1,0,0,1-3.31-7.78,10.59,10.59,0,0,1,3.9-8.48q3.9-3.29,10.47-3.29,7.56,0,11.42,4.57T968,497q0,8.25-4,13.43t-12,5.18a14.31,14.31,0,0,1-8.59-2.44A10.1,10.1,0,0,1,939.35,506.46Zm13.26-10.74a4.41,4.41,0,0,0,2.93-1.07,3.72,3.72,0,0,0,1.26-3,4.25,4.25,0,0,0-1.15-3.13,4.2,4.2,0,0,0-5.71-.08,4.19,4.19,0,0,0-1.17,3.23,4,4,0,0,0,1.09,3A3.71,3.71,0,0,0,952.61,495.72Z"/><path class="cls-2" d="M560.41,64.65c37.74,25.28,66.26,58.83,87,98.93,5,9.73,17.7,21.68.55,31.51-15.87,9.1-23.5-3.19-30.22-14.69-24.54-42-61.2-66.95-108-78C432.35,84,354.84,119,317.37,188.49c-2.42,4.49-9,9.53-13.74,9.56-62.83.39-125.67-.07-188.51-.32,1.11-6.26.76-13.28,3.56-18.65,31.93-61.35,78.73-108.6,141.81-136.54C351.4,2.27,442.46,4,531.62,50.44A75.16,75.16,0,0,0,549,57.3"/><path class="cls-2" d="M170.54,602.45c-37.78-27.7-63.51-65-83.23-106.64-1.75-3.71.89-13.33,3.93-14.66,6.09-2.67,15.13-4,20.6-1.27,6.09,3.07,10,11,14.09,17.38,36,56.23,88.79,80.86,153.84,78.17,63.06-2.6,112.17-30.67,143-87.59,2.76-5.08,9.54-11.32,14.49-11.36,62.87-.51,125.75,0,188.62.3-1.39,6.79-1.2,14.44-4.39,20.24C569,592.82,488.12,647.89,379.46,658.38c-63.74,6.15-124.77-4.7-180.2-39-3.35-2.06-8.45-3.3-12.74-3.86,0,0-.83-.65-.81-.66-3.22-2.49-6.47-5-9.72-7.45l.63-.84s-.44.95-.43.94Z"/><path class="cls-2" d="M62.3,440.1c-10.59,0-21.18,0-31.77,0C8.57,440,.38,434.5.17,419.62,0,404.4,8.3,398.35,29.74,398.31c22.36,0,44.71-.3,67.06.1,14.15.24,23.54-5.77,23.5-20,0-13.4-9.81-19.23-22.61-19.47s-25.88.13-38.82-.1c-30.48-.53-56.26-23.79-58.6-52.65-2.85-35.3,16.7-64,49.87-67.26,30.29-3,61-1.84,91.58-1.63,12.27.08,20.25,8.24,20.21,20.22-.05,12.63-7.47,20.71-21.26,20.73-23.53,0-47.06,0-70.59,0-19.29.07-29.72,7.28-29.44,20.17C40.91,311,51.48,318,70.74,318.14c10,.08,20-.2,30,.06,34.6.88,61,26.53,61.73,59.75.72,33.53-26.49,61.2-61.35,62.09C88.19,440.37,75.24,440.09,62.3,440.1Z"/><path class="cls-2" d="M437.59,440.1c-12.33,0-24.67.26-37-.05-48.21-1.21-76.47-49.7-52.91-91.68,4.41-7.85,3.91-12.39-.35-20-21.94-39.18,1.91-86.28,46.79-90.33,28.55-2.57,57.5-1.16,86.26-.81,13,.16,21.6,7.67,21.22,20.9-.39,14.08-9.44,20.39-23.53,20.23-23.49-.26-47,.07-70.48-.12-13.68-.11-25,3.14-26.58,19-1.26,12.86,8.78,20.49,26.54,20.81,14.09.25,28.19-.1,42.28.14,13.37.22,21.11,6.95,20.83,20.66s-8.2,20-21.52,20c-14.68,0-29.36.06-44,0-13.62,0-23.79,5.7-24,19.9-.2,14.5,9.77,19.83,23.7,19.6,23.49-.37,47-.25,70.48,0,17.23.15,27.51,8.12,26.43,21.18-1.35,16.31-12.26,21.12-27.14,20.64C462.27,439.78,449.92,440.1,437.59,440.1Z"/><path class="cls-2" d="M610.22,440.09c-12.34,0-24.69.33-37-.06-47.29-1.49-75.53-49.61-52.59-90.74,4.72-8.46,4.49-13.21-.11-21.51-21.46-38.75,1.89-85.25,46-89.42,29.12-2.76,58.67-1.46,88-.93,12.78.23,21.09,7.78,20.33,21.48s-9.38,19.37-22.42,19.38c-24.09,0-48.18.12-72.27,0-13.94-.09-25.22,3.92-25.43,19.93-.21,16.51,11.89,19.77,25.39,19.92,14.1.16,28.2,0,42.3.07,13.3,0,21.89,6.68,22,19.87.17,13.94-8.14,21.18-22.59,20.91-14.1-.25-28.2,0-42.31-.06s-25.08,4.47-24.83,20.46c.24,15,10.59,19.21,24.15,19,23.49-.32,47,0,70.5-.12,14.06-.07,24.47,4.51,25.52,20.26.91,13.84-8.19,21.26-25.85,21.53C636.07,440.26,623.14,440.1,610.22,440.09Z"/><path class="cls-2" d="M924.5,440.1c-12.35,0-24.71.25-37-.05-47.62-1.19-75.83-48.37-53.54-90.26,4.24-8,5.19-13,.39-21.71-22-39.71,2-86.19,47.18-90.08,28.61-2.47,57.59-1.27,86.38-.65,12.81.27,21.15,8.06,20.45,21.57s-9.16,19.46-22.42,19.4c-24.12-.1-48.24.19-72.36-.1-14.24-.17-25.28,4.5-25.42,20.09C868,314.46,880,318.16,893.7,318.15c12.95,0,25.89.14,38.83,0,14.06-.19,25.09,4,25.16,20.15.08,15.8-10.09,21-24.56,20.71-14.11-.28-28.24-.21-42.35,0-13.73.21-23.25,6.47-22.68,21,.55,13.8,10.17,18.5,23.17,18.36,24.11-.25,48.23,0,72.35-.1,14.43-.06,24.7,5.65,24.61,21.08s-10.52,21-24.9,20.78C950.39,440,937.45,440.1,924.5,440.1Z"/><path class="cls-2" d="M234.3,352.41c0-18.82-1.05-37.71.3-56.43,1.1-15.23-4.54-19.85-18.79-17.83-6.34.9-12.92.21-19.38.12-13.27-.2-21.57-6.93-21.87-20.14-.31-13.48,8.6-20.3,21.33-20.93,14.66-.72,29.39-.23,44.09-.23,23.53,0,47-.25,70.57.08,18,.24,26.85,7.69,25.92,21.55-1.06,15.93-11.63,19.67-25.69,19.82-34.71.38-34.7.63-34.7,34.62s-.28,68.22.13,102.32c.16,14-5.4,22.81-19.44,24.51-12.27,1.48-21.88-8.64-22.31-23.95C233.88,394.76,234.32,373.58,234.3,352.41Z"/><path class="cls-3" d="M186.52,615.56c4.29.56,6.44.74,12.74,3.86,80.7,35.88,116.46,45.11,180.2,39C488.12,647.89,569,592.82,621.53,497c3.19-5.8,3-13.45,4.39-20.24,2.91-.28,5.82-.82,8.72-.81,23.66.08,31.51,11.11,18,30.78-21.8,31.66-43.39,64.84-71.28,90.66C476.25,694.68,312,704,194.3,622.46,191.47,620.5,189.11,617.87,186.52,615.56Z"/><path class="cls-3" d="M555,61.3c-6.72-1-15.67-6.9-21.34-9.86C444.46,5,353.4,3.27,262.49,43.54c-63.08,27.94-109.88,75.19-141.81,136.54-2.8,5.37-2.45,12.39-3.56,18.65-4.09.24-8.21,1-12.26.65-18.81-1.47-24.08-9.77-16-27,16.7-35.55,40.72-65.81,69.41-92.44C263.81-18,422.3-25.24,547,54.3,549.73,56.07,555,60.3,555,61.3Z"/><path class="cls-2" d="M696.13,339.52c0-24.67,0-49.34,0-74,.06-19.12,7.08-28.5,21-28.32,13.2.17,20.68,10.39,20.75,29.13.13,37.59.71,75.2-.3,112.77-.4,14.69,2.23,21.36,18.77,19.58,15.68-1.69,31.68-.46,47.54-.33,13.46.11,23.45,5.56,23.65,20.19.21,15.32-9.38,21.63-24,21.59-27.61-.08-55.22.21-82.82-.11-17.55-.2-24.35-7.16-24.52-24.71C696,390,696.13,364.78,696.13,339.52Z"/><path class="cls-3" d="M176,607.45c3.25,2.48,6.5,5,9.72,7.45C182.45,612.42,179.22,609.94,176,607.45Z"/><path class="cls-3" d="M170.54,602.45l5.65,5.1Q173.36,605,170.54,602.45Z"/></symbol></defs><title>App Icon - 114x114</title><g id="App_Icon_-_Preview_Sizes" data-name="App Icon - Preview Sizes"><g id="_114" data-name="114"><use width="988.35" height="677.59" transform="translate(2.45 19.63) scale(0.11)" xlink:href="#Icon"/></g></g></svg>