<?xml version="1.0" encoding="utf-8"?>
<!-- Generator: Adobe Illustrator 23.0.1, SVG Export Plug-In . SVG Version: 6.00 Build 0)  -->
<svg version="1.1" id="App_Icon_Kit_A" xmlns="http://www.w3.org/2000/svg" xmlns:xlink="http://www.w3.org/1999/xlink" x="0px"
	 y="0px" viewBox="0 0 1024 1024" style="enable-background:new 0 0 1024 1024;" xml:space="preserve">
<style type="text/css">
	.st0{fill:#58585A;}
	.st1{fill:#EC1E26;}
	.st2{fill:#A01014;}
</style>
<title>App Icon Main - 1024x1024</title>
<g id="App_Icon_and_Badge_-_Main">
	<path class="st0" d="M626.4,626l7.2-1.2c0.6,1.9,2.1,2.8,4.6,2.8c1.9,0,2.9-0.5,2.9-1.4c0-0.5-0.3-0.9-0.7-1.2
		c-0.8-0.4-1.6-0.6-2.4-0.7c-4.4-0.8-7.2-1.8-8.5-3c-1.2-1.1-1.9-2.7-1.9-4.4c0-2.1,1-4.1,2.7-5.4c1.8-1.4,4.4-2.2,7.8-2.2
		c5.1,0,8.5,1.9,10.2,5.6l-6.4,1.7c-0.7-1.5-2-2.3-4-2.3c-1.7,0-2.5,0.5-2.5,1.4c0,0.4,0.2,0.8,0.6,1c0.7,0.3,1.4,0.6,2.2,0.7
		c2.2,0.4,4.3,0.9,6.4,1.5c1.3,0.4,2.4,1.2,3.2,2.3c0.9,1.1,1.3,2.4,1.3,3.8c0,2.3-1.2,4.4-3.1,5.7c-2.1,1.4-4.8,2.2-8.1,2.2
		C631.7,633,627.9,630.6,626.4,626z"/>
	<path class="st0" d="M659.1,608.9v5.3h-7.4v-5.3H659.1z M659.1,615.5v17.1h-7.4v-17.1H659.1z"/>
	<path class="st0" d="M681.2,632.6h-7.4v-10.8c0-0.9-0.1-1.5-0.5-1.7c-0.3-0.3-0.7-0.4-1.1-0.4c-1.3,0-2,0.9-2,2.6v10.3h-7.3v-17.1
		h6.8v2.4c1-1.8,2.8-2.8,5.4-2.8c1.2,0,2.4,0.2,3.5,0.7c0.8,0.4,1.6,1,2,1.9c0.4,0.8,0.6,2.1,0.6,3.9L681.2,632.6z"/>
	<path class="st0" d="M696.4,625.7l6.3,0.5c-0.3,1.9-1.2,3.7-2.8,4.9c-1.8,1.3-3.9,2-6.1,1.9c-2.6,0.1-5.1-0.8-7-2.5
		c-1.8-1.6-2.8-3.9-2.7-6.3c-0.1-2.5,0.9-4.8,2.7-6.5c1.9-1.7,4.4-2.7,6.9-2.5c2.2-0.1,4.4,0.6,6.2,1.9c1.5,1.2,2.5,3,2.7,4.9
		l-6.4,0.5c-0.3-1.8-1-2.7-2.3-2.7c-0.7,0-1.4,0.3-1.7,1c-0.4,1.1-0.6,2.3-0.5,3.4c-0.1,1.1,0.1,2.1,0.5,3.1c0.4,0.7,1.1,1.1,1.9,1
		C695.4,628.3,696.1,627.4,696.4,625.7z"/>
	<path class="st0" d="M717.2,626.5l6.9,0.4c-0.5,1.8-1.6,3.3-3.1,4.3c-1.7,1.2-3.9,1.8-6.7,1.8c-3.1,0-5.7-0.8-7.6-2.5
		c-1.8-1.5-2.9-3.8-2.8-6.2c0-2.5,1-4.8,2.8-6.5c1.9-1.8,4.3-2.6,7.4-2.6c3,0,5.4,0.8,7.3,2.5c1.8,1.7,2.8,3.9,2.8,6.8
		c0,0.2,0,0.6,0,1h-12.6c0,0.8,0.2,1.7,0.6,2.4c0.4,0.5,1.1,0.8,2.2,0.8C716,628.6,716.9,627.9,717.2,626.5z M716.7,622
		c0-1.2-0.3-1.9-0.8-2.3c-0.5-0.4-1.2-0.6-1.8-0.6c-1.7,0-2.6,1-2.6,2.9H716.7z"/>
	<path class="st0" d="M750.2,627.5h5.9v5.1h-19.3v-5.1h6.2v-10.9c-1.8,0.8-3.6,1.3-5.5,1.7v-5.2c3.6-0.7,6-2,7.3-3.8h5.4V627.5z"/>
	<path class="st0" d="M774.3,620.1c2.7,1.3,4.1,3.1,4.1,5.7c0.1,2.2-1.1,4.2-2.9,5.3c-2,1.2-4.5,1.9-7.7,1.9c-3.2,0-5.6-0.6-7.3-1.8
		c-1.6-1-2.6-2.7-2.6-4.6c0-2.4,1.3-4.1,3.9-5.2c-2-0.9-3.2-2.9-3.1-5c0-2,1-3.9,2.6-5c1.7-1.3,4.1-2,7.1-2c2.3-0.1,4.6,0.5,6.6,1.7
		c1.6,0.9,2.6,2.6,2.6,4.5c0,0.8-0.2,1.6-0.6,2.3C776.3,618.8,775.4,619.6,774.3,620.1z M766.1,623.7c-1.2,0.7-1.7,1.5-1.7,2.4
		c0,0.7,0.4,1.4,1,1.7c0.8,0.5,1.8,0.8,2.8,0.7c0.8,0.1,1.6-0.1,2.3-0.5c0.5-0.3,0.8-0.8,0.7-1.3c0-0.9-0.7-1.6-2.2-2.1L766.1,623.7
		z M769.6,618.4c0.9-0.3,1.6-1.2,1.6-2.1c0-0.7-0.3-1.3-0.9-1.7c-0.7-0.5-1.6-0.7-2.4-0.7c-0.6,0-1.2,0.1-1.8,0.5
		c-0.4,0.3-0.6,0.7-0.6,1.2c0,0.9,0.6,1.5,1.8,2L769.6,618.4z"/>
	<path class="st0" d="M796.4,620.1c2.7,1.3,4.1,3.1,4.1,5.7c0.1,2.2-1.1,4.2-2.9,5.3c-2,1.2-4.5,1.9-7.7,1.9s-5.6-0.6-7.3-1.8
		c-1.6-1-2.6-2.7-2.6-4.6c0-2.4,1.3-4.1,3.9-5.2c-2-0.9-3.2-2.9-3.1-5c0-2,1-3.9,2.6-5c1.7-1.3,4.1-2,7.1-2c2.3-0.1,4.6,0.5,6.6,1.7
		c1.6,0.9,2.6,2.6,2.6,4.5c0,0.8-0.2,1.6-0.6,2.3C798.4,618.8,797.5,619.6,796.4,620.1z M788.3,623.7c-1.2,0.7-1.7,1.5-1.7,2.4
		c0,0.7,0.4,1.4,1,1.7c0.8,0.5,1.8,0.8,2.8,0.7c0.8,0,1.6-0.1,2.2-0.5c0.5-0.3,0.8-0.8,0.8-1.3c0-0.9-0.7-1.6-2.2-2.1L788.3,623.7z
		 M791.7,618.4c0.9-0.3,1.6-1.2,1.6-2.1c0-0.7-0.3-1.3-0.9-1.7c-0.7-0.5-1.6-0.7-2.4-0.7c-0.6,0-1.2,0.1-1.8,0.5
		c-0.4,0.3-0.6,0.7-0.6,1.2c0,0.9,0.6,1.5,1.8,2L791.7,618.4z"/>
	<path class="st0" d="M803,626.8l6.5-0.9c0.3,1.4,1.1,2.1,2.4,2.1c1,0,1.9-0.5,2.4-1.3c0.6-1.1,0.9-2.4,0.8-3.7c0-0.2,0-0.4,0-0.7
		c-1.2,1.5-3,2.3-4.9,2.2c-2.1,0.1-4.1-0.7-5.6-2.1c-1.5-1.3-2.3-3.3-2.2-5.2c-0.1-2.2,0.9-4.3,2.6-5.7c1.7-1.5,4.1-2.2,7.1-2.2
		c3.4,0,5.9,1,7.7,3.1c1.7,2,2.6,4.8,2.6,8.1c0,3.7-0.9,6.7-2.7,9c-1.8,2.3-4.5,3.5-8.1,3.5c-2,0.1-4.1-0.5-5.8-1.6
		C804.3,630.3,803.2,628.6,803,626.8z M811.9,619.6c0.7,0,1.4-0.2,2-0.7c0.6-0.5,0.9-1.3,0.8-2c0-0.8-0.2-1.5-0.8-2.1
		c-1.1-1-2.7-1-3.8,0c-0.6,0.6-0.8,1.4-0.8,2.2c0,0.7,0.2,1.5,0.7,2C810.5,619.4,811.2,619.6,811.9,619.6z"/>
	<path class="st1" d="M548,327.6c25.4,17,44.6,39.6,58.5,66.6c3.4,6.6,11.9,14.6,0.4,21.2c-10.7,6.1-15.8-2.1-20.3-9.9
		c-16.5-28.3-41.2-45.1-72.7-52.5c-52-12.3-104.2,11.2-129.4,57.9c-1.6,3-6.1,6.4-9.2,6.4c-42.3,0.3-84.6,0-126.8-0.2
		c0.7-4.2,0.5-8.9,2.4-12.5c21.5-41.3,53-73.1,95.4-91.9c61.2-27.1,122.4-25.9,182.4,5.3c3.7,2,7.6,3.5,11.6,4.6"/>
	<path class="st1" d="M285.7,689.4c-25.4-18.6-42.7-43.7-56-71.7c-1.2-2.5,0.6-9,2.6-9.9c4.1-1.8,10.2-2.7,13.9-0.9
		c4.1,2.1,6.7,7.4,9.5,11.7c24.2,37.8,59.7,54.4,103.5,52.6c42.4-1.7,75.5-20.6,96.2-58.9c1.9-3.4,6.4-7.6,9.7-7.6
		c42.3-0.3,84.6,0,126.9,0.2c-0.9,4.6-0.8,9.7-2.9,13.6C553.8,682.9,499.4,720,426.3,727c-42.9,4.1-83.9-3.2-121.2-26.2
		c-2.3-1.4-5.7-2.2-8.6-2.6c0,0-0.6-0.4-0.6-0.4c-2.2-1.7-4.4-3.4-6.5-5l0.4-0.6c0,0-0.3,0.7-0.3,0.6L285.7,689.4z"/>
	<path class="st1" d="M212.9,580.2c-7.1,0-14.2,0-21.4,0c-14.8,0-20.3-3.8-20.4-13.8c-0.1-10.2,5.5-14.3,19.9-14.3
		c15,0,30.1-0.2,45.1,0.1c9.5,0.2,15.8-3.9,15.8-13.5c0-9-6.6-12.9-15.2-13.1c-8.6-0.2-17.4,0.1-26.1-0.1
		c-20.5-0.4-37.9-16-39.4-35.4c-1.9-23.7,11.2-43.1,33.5-45.3c20.4-2,41-1.2,61.6-1.1c8.3,0.1,13.6,5.5,13.6,13.6
		c0,8.5-5,13.9-14.3,13.9c-15.8,0-31.7,0-47.5,0c-13,0-20,4.9-19.8,13.6c0.2,8.4,7.3,13.1,20.3,13.2c6.7,0.1,13.5-0.1,20.2,0
		c23.3,0.6,41,17.8,41.5,40.2c0.5,22.6-17.8,41.2-41.3,41.8C230.3,580.3,221.6,580.2,212.9,580.2z"/>
	<path class="st1" d="M465.4,580.2c-8.3,0-16.6,0.2-24.9,0c-32.4-0.8-51.4-33.4-35.6-61.7c3-5.3,2.6-8.3-0.2-13.5
		c-14.8-26.4,1.3-58,31.5-60.8c19.2-1.7,38.7-0.8,58-0.5c8.7,0.1,14.5,5.2,14.3,14.1c-0.3,9.5-6.4,13.7-15.8,13.6
		c-15.8-0.2-31.6,0-47.4-0.1c-9.2-0.1-16.8,2.1-17.9,12.8c-0.8,8.7,5.9,13.8,17.9,14c9.5,0.2,19-0.1,28.4,0.1
		c9,0.2,14.2,4.7,14,13.9c-0.2,9.2-5.5,13.5-14.5,13.5c-9.9,0-19.7,0-29.6,0c-9.2,0-16,3.8-16.1,13.4c-0.1,9.7,6.6,13.3,15.9,13.2
		c15.8-0.2,31.6-0.2,47.4,0c11.6,0.1,18.5,5.5,17.8,14.3c-0.9,11-8.2,14.2-18.3,13.9C482,579.9,473.7,580.2,465.4,580.2z"/>
	<path class="st1" d="M581.5,580.2c-8.3,0-16.6,0.2-24.9,0c-31.8-1-50.8-33.4-35.4-61c3.2-5.7,3-8.9-0.1-14.5
		c-14.4-26.1,1.3-57.4,30.9-60.2c19.6-1.9,39.5-1,59.2-0.6c8.6,0.2,14.2,5.2,13.7,14.5c-0.5,9.2-6.3,13-15.1,13
		c-16.2,0-32.4,0.1-48.6,0c-9.4-0.1-17,2.6-17.1,13.4c-0.1,11.1,8,13.3,17.1,13.4c9.5,0.1,19,0,28.5,0c8.9,0,14.7,4.5,14.8,13.4
		c0.1,9.4-5.5,14.3-15.2,14.1c-9.5-0.2-19,0-28.5,0c-9.5,0-16.9,3-16.7,13.8c0.2,10.1,7.1,12.9,16.2,12.8c15.8-0.2,31.6,0,47.4-0.1
		c9.5,0,16.5,3,17.2,13.6c0.6,9.3-5.5,14.3-17.4,14.5C598.9,580.3,590.2,580.2,581.5,580.2z"/>
	<path class="st1" d="M793,580.2c-8.3,0-16.6,0.2-24.9,0c-32-0.8-51-32.5-36-60.7c2.9-5.4,3.5-8.7,0.3-14.6
		c-14.8-26.7,1.3-58,31.7-60.6c19.2-1.7,38.7-0.9,58.1-0.4c8.6,0.2,14.2,5.4,13.8,14.5c-0.5,9.1-6.2,13.1-15.1,13.1
		c-16.2-0.1-32.5,0.1-48.7-0.1c-9.6-0.1-17,3-17.1,13.5c-0.1,10.9,8,13.4,17.2,13.3c8.7,0,17.4,0.1,26.1,0
		c9.5-0.1,16.9,2.7,16.9,13.6c0,10.6-6.8,14.1-16.5,13.9c-9.5-0.2-19-0.1-28.5,0c-9.2,0.1-15.6,4.4-15.3,14.1
		c0.4,9.3,6.8,12.4,15.6,12.4c16.2-0.2,32.4,0,48.7-0.1c9.7,0,16.6,3.8,16.6,14.2s-7.1,14.1-16.8,14
		C810.4,580.1,801.7,580.2,793,580.2z"/>
	<path class="st1" d="M328.6,521.2c0-12.7-0.7-25.4,0.2-38c0.7-10.2-3.1-13.4-12.6-12c-4.3,0.6-8.7,0.1-13,0.1
		c-8.9-0.1-14.5-4.7-14.7-13.6c-0.2-9.1,5.8-13.7,14.4-14.1c9.9-0.5,19.8-0.2,29.7-0.2c15.8,0,31.7-0.2,47.5,0.1
		c12.1,0.2,18.1,5.2,17.4,14.5c-0.7,10.7-7.8,13.2-17.3,13.3c-23.4,0.3-23.3,0.4-23.3,23.3c0,22.9-0.2,45.9,0.1,68.8
		c0.1,9.4-3.6,15.3-13.1,16.5c-8.3,1-14.7-5.8-15-16.1C328.3,549.7,328.6,535.4,328.6,521.2z"/>
	<path class="st2" d="M296.5,698.2c2.9,0.4,4.3,0.5,8.6,2.6c54.3,24.1,78.4,30.3,121.2,26.2c73.1-7.1,127.5-44.1,162.9-108.6
		c2.1-3.9,2-9,2.9-13.6c1.9-0.3,3.9-0.5,5.9-0.5c15.9,0.1,21.2,7.5,12.1,20.7c-14.7,21.3-29.2,43.6-48,61
		c-70.7,65.4-181.2,71.7-260.4,16.8C299.8,701.5,298.2,699.8,296.5,698.2z"/>
	<path class="st2" d="M544.4,325.3c-4.5-0.7-10.5-4.6-14.4-6.6c-60-31.2-121.2-32.4-182.4-5.3c-42.4,18.8-73.9,50.6-95.4,91.9
		c-1.9,3.6-1.6,8.3-2.4,12.5c-2.8,0.2-5.5,0.7-8.2,0.4c-12.7-1-16.2-6.6-10.8-18.2c11.2-23.9,27.4-44.3,46.7-62.2
		c71-65.9,177.6-70.8,261.5-17.3C540.8,321.8,544.4,324.6,544.4,325.3z"/>
	<path class="st1" d="M639.3,512.5c0-16.6,0-33.2,0-49.8c0-12.9,4.8-19.2,14.1-19.1c8.9,0.1,13.9,7,14,19.6
		c0.1,25.3,0.5,50.6-0.2,75.9c-0.3,9.9,1.5,14.4,12.6,13.2c10.5-1.1,21.3-0.3,32-0.2c9.1,0.1,15.8,3.7,15.9,13.6
		c0.1,10.3-6.3,14.6-16.1,14.5c-18.6-0.1-37.2,0.1-55.7-0.1c-11.8-0.1-16.4-4.8-16.5-16.6C639.2,546.5,639.3,529.5,639.3,512.5z"/>
	<path class="st2" d="M289.4,692.8c2.2,1.7,4.4,3.4,6.5,5C293.7,696.1,291.6,694.4,289.4,692.8z"/>
	<path class="st2" d="M285.7,689.4l3.8,3.4C288.2,691.7,287,690.5,285.7,689.4z"/>
</g>
</svg>
