<?xml version="1.0" encoding="UTF-8" standalone="no"?>
<!-- Created with Inkscape (http://www.inkscape.org/) -->

<svg
   xmlns:dc="http://purl.org/dc/elements/1.1/"
   xmlns:cc="http://creativecommons.org/ns#"
   xmlns:rdf="http://www.w3.org/1999/02/22-rdf-syntax-ns#"
   xmlns:svg="http://www.w3.org/2000/svg"
   xmlns="http://www.w3.org/2000/svg"
   xmlns:sodipodi="http://sodipodi.sourceforge.net/DTD/sodipodi-0.dtd"
   xmlns:inkscape="http://www.inkscape.org/namespaces/inkscape"
   width="108"
   height="108"
   viewBox="0 0 28.575001 28.575001"
   version="1.1"
   id="svg9078"
   inkscape:version="0.92.4 (5da689c313, 2019-01-14)"
   sodipodi:docname="App Icon -108 -108px.svg">
  <defs
     id="defs9072" />
  <sodipodi:namedview
     id="base"
     pagecolor="#ffffff"
     bordercolor="#666666"
     borderopacity="1.0"
     inkscape:pageopacity="0.0"
     inkscape:pageshadow="2"
     inkscape:zoom="1.979899"
     inkscape:cx="113.66302"
     inkscape:cy="7.4881207"
     inkscape:document-units="mm"
     inkscape:current-layer="layer1"
     showgrid="false"
     units="px"
     inkscape:window-width="2560"
     inkscape:window-height="1017"
     inkscape:window-x="-8"
     inkscape:window-y="-8"
     inkscape:window-maximized="1" />
  <metadata
     id="metadata9075">
    <rdf:RDF>
      <cc:Work
         rdf:about="">
        <dc:format>image/svg+xml</dc:format>
        <dc:type
           rdf:resource="http://purl.org/dc/dcmitype/StillImage" />
        <dc:title></dc:title>
      </cc:Work>
    </rdf:RDF>
  </metadata>
  <g
     inkscape:label="Layer 1"
     inkscape:groupmode="layer"
     id="layer1"
     transform="translate(0,-268.42499)">
    <g
       id="App_Icon_and_Badge_-_Main"
       data-name="App Icon and Badge - Main"
       transform="matrix(0.02688647,0,0,0.02841111,0.99514509,269.33956)">
      <text
         class="cls-1"
         transform="matrix(1.09,0,0,1,677.58,644.55)"
         id="text9016"
         style="font-weight:800;font-size:51.27999878px;font-family:FranklinGothic-Heavy, 'Franklin Gothic Heavy';fill:#58585a">Since <tspan
   class="cls-2"
   x="146.24001"
   y="0"
   id="tspan9012"
   style="letter-spacing:0.01em">1</tspan>
<tspan
   x="176.92999"
   y="0"
   id="tspan9014">889</tspan>
</text>
      <path
         class="cls-3"
         d="m 578.45,226.35 c 37.74,25.28 66.26,58.83 87,98.92 5,9.74 17.7,21.68 0.55,31.52 -15.87,9.1 -23.5,-3.19 -30.22,-14.69 -24.53,-42 -61.2,-67 -108,-78 -77.36,-18.32 -154.86,16.6 -192.34,86.13 -2.42,4.49 -9,9.53 -13.74,9.56 -62.83,0.39 -125.67,-0.07 -188.51,-0.32 1.11,-6.26 0.76,-13.28 3.56,-18.65 31.93,-61.35 78.73,-108.6 141.81,-136.54 90.92,-40.27 182,-38.52 271.13,7.9 A 75.79,75.79 0 0 0 567,219"
         transform="translate(-18.04,-35.22)"
         id="path9018"
         inkscape:connector-curvature="0"
         style="fill:#ec1e26" />
      <path
         class="cls-3"
         d="m 188.58,764.15 c -37.78,-27.7 -63.51,-64.95 -83.23,-106.64 -1.75,-3.71 0.89,-13.33 3.93,-14.66 6.09,-2.68 15.13,-4 20.6,-1.27 6.09,3.07 10,11 14.09,17.38 36,56.23 88.79,80.86 153.84,78.17 63.06,-2.6 112.17,-30.67 143,-87.59 2.76,-5.08 9.54,-11.33 14.49,-11.36 62.87,-0.51 125.75,0 188.62,0.3 -1.39,6.79 -1.2,14.44 -4.38,20.24 -52.54,95.8 -133.37,150.87 -242.04,161.36 -63.74,6.15 -124.77,-4.7 -180.2,-39 -3.35,-2.07 -8.45,-3.31 -12.73,-3.86 0,0 -0.84,-0.65 -0.82,-0.66 -3.22,-2.5 -6.47,-5 -9.72,-7.45 l 0.63,-0.84 c 0,0 -0.44,1 -0.43,0.94 z"
         transform="translate(-18.04,-35.22)"
         id="path9020"
         inkscape:connector-curvature="0"
         style="fill:#ec1e26" />
      <path
         class="cls-3"
         d="m 80.34,601.79 c -10.59,0 -21.18,0 -31.77,0 -22,-0.06 -30.15,-5.6 -30.36,-20.47 C 18,566.1 26.34,560.05 47.78,560 c 22.36,0 44.71,-0.3 67.06,0.09 14.15,0.25 23.54,-5.76 23.5,-20 0,-13.4 -9.81,-19.24 -22.6,-19.47 -12.79,-0.23 -25.89,0.12 -38.83,-0.1 -30.48,-0.53 -56.26,-23.79 -58.59,-52.65 -2.86,-35.3 16.69,-64 49.86,-67.26 30.29,-3 61,-1.85 91.58,-1.64 12.27,0.09 20.25,8.24 20.21,20.23 -0.05,12.62 -7.47,20.71 -21.26,20.72 -23.53,0 -47.06,0 -70.59,0 -19.29,0.06 -29.71,7.28 -29.44,20.17 0.27,12.53 10.84,19.48 30.1,19.64 10,0.09 20,-0.19 30,0.07 34.61,0.88 61,26.52 61.73,59.75 0.72,33.52 -26.49,61.19 -61.35,62.09 -12.93,0.43 -25.88,0.15 -38.82,0.15 z"
         transform="translate(-18.04,-35.22)"
         id="path9022"
         inkscape:connector-curvature="0"
         style="fill:#ec1e26" />
      <path
         class="cls-3"
         d="m 455.63,601.79 c -12.33,0 -24.67,0.26 -37,0 -48.21,-1.22 -76.47,-49.7 -52.91,-91.68 4.41,-7.85 3.91,-12.39 -0.35,-20 -21.94,-39.18 1.92,-86.28 46.79,-90.33 28.55,-2.58 57.5,-1.16 86.26,-0.81 13,0.15 21.6,7.66 21.23,20.9 -0.4,14.07 -9.45,20.38 -23.54,20.23 -23.49,-0.26 -47,0.07 -70.47,-0.12 -13.69,-0.11 -25,3.14 -26.59,19 -1.26,12.86 8.78,20.48 26.54,20.81 14.09,0.25 28.19,-0.1 42.28,0.13 13.37,0.23 21.11,6.95 20.83,20.67 -0.28,13.72 -8.2,20 -21.51,20 q -22,0 -44.05,0 c -13.62,-0.05 -23.79,5.7 -24,19.9 -0.2,14.49 9.77,19.82 23.7,19.6 23.49,-0.37 47,-0.25 70.48,-0.05 17.23,0.16 27.51,8.12 26.43,21.19 -1.35,16.31 -12.26,21.11 -27.14,20.64 -12.3,-0.39 -24.61,-0.07 -36.98,-0.08 z"
         transform="translate(-18.04,-35.22)"
         id="path9024"
         inkscape:connector-curvature="0"
         style="fill:#ec1e26" />
      <path
         class="cls-3"
         d="m 628.26,601.79 c -12.34,0 -24.69,0.33 -37,-0.06 -47.26,-1.49 -75.54,-49.62 -52.6,-90.73 4.71,-8.45 4.48,-13.2 -0.12,-21.5 -21.46,-38.75 1.89,-85.25 46,-89.42 29.12,-2.76 58.67,-1.46 88,-0.94 12.77,0.23 21.08,7.78 20.32,21.49 -0.76,13.71 -9.41,19.37 -22.45,19.37 -24.09,0 -48.18,0.13 -72.27,0 -13.94,-0.09 -25.22,3.92 -25.43,19.93 -0.21,16.51 11.89,19.77 25.39,19.92 14.1,0.15 28.2,0 42.3,0.07 13.3,0 21.89,6.68 22.05,19.86 0.17,14 -8.14,21.19 -22.59,20.92 -14.1,-0.26 -28.2,0 -42.3,-0.07 -14.1,-0.07 -25.09,4.48 -24.84,20.47 0.24,15 10.59,19.21 24.15,19 23.5,-0.32 47,0 70.5,-0.12 14.07,-0.07 24.47,4.51 25.52,20.26 0.91,13.84 -8.19,21.26 -25.85,21.53 -12.93,0.23 -25.86,0.03 -38.78,0.02 z"
         transform="translate(-18.04,-35.22)"
         id="path9026"
         inkscape:connector-curvature="0"
         style="fill:#ec1e26" />
      <path
         class="cls-3"
         d="m 942.55,601.79 c -12.36,0 -24.72,0.26 -37.06,0 -47.62,-1.18 -75.83,-48.36 -53.54,-90.25 4.24,-8 5.19,-13 0.39,-21.71 -22,-39.71 2,-86.19 47.18,-90.08 28.61,-2.47 57.59,-1.27 86.38,-0.66 12.82,0.28 21.15,8.07 20.45,21.58 -0.7,13.51 -9.16,19.46 -22.42,19.4 -24.12,-0.11 -48.24,0.19 -72.35,-0.1 -14.24,-0.17 -25.29,4.5 -25.43,20.09 -0.15,16.15 11.87,19.85 25.6,19.84 12.94,0 25.88,0.14 38.82,0 14.06,-0.19 25.09,4 25.17,20.15 0.07,15.8 -10.1,21 -24.57,20.71 -14.11,-0.28 -28.24,-0.22 -42.35,0 -13.73,0.21 -23.25,6.47 -22.67,21 0.54,13.79 10.16,18.5 23.16,18.36 24.11,-0.25 48.23,0 72.35,-0.1 14.43,-0.07 24.7,5.65 24.62,21.07 -0.08,15.42 -10.53,21 -24.91,20.79 -12.94,-0.22 -25.88,-0.08 -38.82,-0.09 z"
         transform="translate(-18.04,-35.22)"
         id="path9028"
         inkscape:connector-curvature="0"
         style="fill:#ec1e26" />
      <path
         class="cls-3"
         d="m 252.34,514.11 c 0,-18.82 -1.05,-37.71 0.3,-56.43 1.1,-15.23 -4.54,-19.85 -18.79,-17.83 -6.34,0.9 -12.91,0.21 -19.38,0.12 -13.27,-0.2 -21.57,-6.93 -21.87,-20.14 -0.31,-13.49 8.6,-20.3 21.33,-20.93 14.66,-0.73 29.39,-0.23 44.09,-0.24 23.53,0 47.05,-0.24 70.57,0.08 18,0.25 26.85,7.7 25.92,21.56 -1.06,15.93 -11.63,19.67 -25.69,19.82 -34.71,0.38 -34.7,0.63 -34.7,34.61 0,33.98 -0.28,68.22 0.13,102.33 0.16,14 -5.4,22.81 -19.44,24.51 -12.27,1.48 -21.88,-8.64 -22.31,-24 -0.58,-21.11 -0.14,-42.29 -0.16,-63.46 z"
         transform="translate(-18.04,-35.22)"
         id="path9030"
         inkscape:connector-curvature="0"
         style="fill:#ec1e26" />
      <path
         class="cls-4"
         d="m 204.57,777.26 c 4.28,0.55 6.43,0.74 12.73,3.86 80.7,35.88 116.46,45.11 180.2,39 108.67,-10.53 189.5,-65.6 242.08,-161.4 3.18,-5.8 3,-13.45 4.38,-20.24 a 85.9,85.9 0 0 1 8.72,-0.81 c 23.66,0.08 31.51,11.11 18,30.78 -21.8,31.65 -43.39,64.84 -71.28,90.66 -105.07,97.27 -269.32,106.54 -387,25 -2.89,-1.91 -5.25,-4.54 -7.83,-6.85 z"
         transform="translate(-18.04,-35.22)"
         id="path9032"
         inkscape:connector-curvature="0"
         style="fill:#a01014" />
      <path
         class="cls-4"
         d="m 573,223 c -6.72,-1.05 -15.67,-6.91 -21.34,-9.86 -89.16,-46.42 -180.21,-48.17 -271.13,-7.9 -63.08,27.94 -109.88,75.19 -141.81,136.54 -2.8,5.37 -2.45,12.39 -3.56,18.65 -4.09,0.24 -8.21,1 -12.26,0.65 -18.81,-1.47 -24.08,-9.77 -16,-27 16.7,-35.56 40.73,-65.82 69.41,-92.44 C 281.85,143.71 440.34,136.46 565,216 c 2.77,1.77 8,6 8,7 z"
         transform="translate(-18.04,-35.22)"
         id="path9034"
         inkscape:connector-curvature="0"
         style="fill:#a01014" />
      <path
         class="cls-3"
         d="m 714.17,501.22 c 0,-24.67 0,-49.34 0,-74 0.06,-19.12 7.08,-28.5 21,-28.32 13.2,0.17 20.68,10.39 20.75,29.13 0.13,37.59 0.72,75.2 -0.3,112.77 -0.4,14.69 2.23,21.35 18.77,19.57 15.68,-1.68 31.68,-0.45 47.54,-0.32 13.46,0.11 23.45,5.56 23.65,20.19 0.22,15.31 -9.38,21.63 -24,21.59 -27.61,-0.08 -55.22,0.21 -82.82,-0.11 -17.55,-0.2 -24.35,-7.16 -24.52,-24.72 -0.24,-25.26 -0.07,-50.52 -0.07,-75.78 z"
         transform="translate(-18.04,-35.22)"
         id="path9036"
         inkscape:connector-curvature="0"
         style="fill:#ec1e26" />
      <path
         class="cls-4"
         d="m 194,769.15 c 3.25,2.48 6.5,5 9.72,7.45 q -4.84,-3.72 -9.72,-7.45 z"
         transform="translate(-18.04,-35.22)"
         id="path9038"
         inkscape:connector-curvature="0"
         style="fill:#a01014" />
      <path
         class="cls-4"
         d="m 188.58,764.15 5.65,5.1 c -1.89,-1.69 -3.77,-3.4 -5.65,-5.1 z"
         transform="translate(-18.04,-35.22)"
         id="path9040"
         inkscape:connector-curvature="0"
         style="fill:#a01014" />
    </g>
  </g>
</svg>
