<svg id="App_Icon_Kit_A" data-name="App Icon Kit A" xmlns="http://www.w3.org/2000/svg" viewBox="0 0 1024 1024"><defs><style>.cls-1{font-size:51.28px;fill:#58585a;font-family:FranklinGothic-Heavy, Franklin Gothic Heavy;font-weight:800;}.cls-2{letter-spacing:0.01em;}.cls-3{fill:#ec1e26;}.cls-4{fill:#a01014;}</style></defs><title>Logo</title><g id="App_Icon_and_Badge_-_Main" data-name="App Icon and Badge - Main"><text class="cls-1" transform="translate(695.62 679.77) scale(1.09 1)">Since <tspan class="cls-2" x="146.24" y="0">1</tspan><tspan x="176.93" y="0">889</tspan></text><path class="cls-3" d="M578.45,226.35c37.74,25.28,66.26,58.83,87,98.92,5,9.74,17.7,21.68.55,31.52-15.87,9.1-23.5-3.19-30.22-14.69-24.53-42-61.2-67-108-78-77.36-18.32-154.86,16.6-192.34,86.13-2.42,4.49-9,9.53-13.74,9.56-62.83.39-125.67-.07-188.51-.32,1.11-6.26.76-13.28,3.56-18.65,31.93-61.35,78.73-108.6,141.81-136.54,90.92-40.27,182-38.52,271.13,7.9A75.79,75.79,0,0,0,567,219"/><path class="cls-3" d="M188.58,764.15c-37.78-27.7-63.51-64.95-83.23-106.64-1.75-3.71.89-13.33,3.93-14.66,6.09-2.68,15.13-4,20.6-1.27,6.09,3.07,10,11,14.09,17.38,36,56.23,88.79,80.86,153.84,78.17,63.06-2.6,112.17-30.67,143-87.59,2.76-5.08,9.54-11.33,14.49-11.36,62.87-.51,125.75,0,188.62.3-1.39,6.79-1.2,14.44-4.38,20.24C587,754.52,506.17,809.59,397.5,820.08c-63.74,6.15-124.77-4.7-180.2-39-3.35-2.07-8.45-3.31-12.73-3.86,0,0-.84-.65-.82-.66-3.22-2.5-6.47-5-9.72-7.45l.63-.84s-.44,1-.43.94Z"/><path class="cls-3" d="M80.34,601.79c-10.59,0-21.18,0-31.77,0-22-.06-30.15-5.6-30.36-20.47C18,566.1,26.34,560.05,47.78,560c22.36,0,44.71-.3,67.06.09,14.15.25,23.54-5.76,23.5-20,0-13.4-9.81-19.24-22.6-19.47s-25.89.12-38.83-.1c-30.48-.53-56.26-23.79-58.59-52.65-2.86-35.3,16.69-64,49.86-67.26,30.29-3,61-1.85,91.58-1.64,12.27.09,20.25,8.24,20.21,20.23-.05,12.62-7.47,20.71-21.26,20.72-23.53,0-47.06,0-70.59,0-19.29.06-29.71,7.28-29.44,20.17.27,12.53,10.84,19.48,30.1,19.64,10,.09,20-.19,30,.07,34.61.88,61,26.52,61.73,59.75.72,33.52-26.49,61.19-61.35,62.09C106.23,602.07,93.28,601.79,80.34,601.79Z"/><path class="cls-3" d="M455.63,601.79c-12.33,0-24.67.26-37,0-48.21-1.22-76.47-49.7-52.91-91.68,4.41-7.85,3.91-12.39-.35-20-21.94-39.18,1.92-86.28,46.79-90.33,28.55-2.58,57.5-1.16,86.26-.81,13,.15,21.6,7.66,21.23,20.9-.4,14.07-9.45,20.38-23.54,20.23-23.49-.26-47,.07-70.47-.12-13.69-.11-25,3.14-26.59,19-1.26,12.86,8.78,20.48,26.54,20.81,14.09.25,28.19-.1,42.28.13,13.37.23,21.11,6.95,20.83,20.67s-8.2,20-21.51,20q-22,0-44.05,0c-13.62-.05-23.79,5.7-24,19.9-.2,14.49,9.77,19.82,23.7,19.6,23.49-.37,47-.25,70.48-.05,17.23.16,27.51,8.12,26.43,21.19-1.35,16.31-12.26,21.11-27.14,20.64C480.31,601.48,468,601.8,455.63,601.79Z"/><path class="cls-3" d="M628.26,601.79c-12.34,0-24.69.33-37-.06C544,600.24,515.72,552.11,538.66,511c4.71-8.45,4.48-13.2-.12-21.5-21.46-38.75,1.89-85.25,46-89.42,29.12-2.76,58.67-1.46,88-.94,12.77.23,21.08,7.78,20.32,21.49S683.45,440,670.41,440c-24.09,0-48.18.13-72.27,0-13.94-.09-25.22,3.92-25.43,19.93-.21,16.51,11.89,19.77,25.39,19.92,14.1.15,28.2,0,42.3.07,13.3,0,21.89,6.68,22.05,19.86.17,14-8.14,21.19-22.59,20.92-14.1-.26-28.2,0-42.3-.07s-25.09,4.48-24.84,20.47c.24,15,10.59,19.21,24.15,19,23.5-.32,47,0,70.5-.12,14.07-.07,24.47,4.51,25.52,20.26.91,13.84-8.19,21.26-25.85,21.53C654.11,602,641.18,601.8,628.26,601.79Z"/><path class="cls-3" d="M942.55,601.79c-12.36,0-24.72.26-37.06,0-47.62-1.18-75.83-48.36-53.54-90.25,4.24-8,5.19-13,.39-21.71-22-39.71,2-86.19,47.18-90.08,28.61-2.47,57.59-1.27,86.38-.66,12.82.28,21.15,8.07,20.45,21.58s-9.16,19.46-22.42,19.4c-24.12-.11-48.24.19-72.35-.1-14.24-.17-25.29,4.5-25.43,20.09-.15,16.15,11.87,19.85,25.6,19.84,12.94,0,25.88.14,38.82,0,14.06-.19,25.09,4,25.17,20.15.07,15.8-10.1,21-24.57,20.71-14.11-.28-28.24-.22-42.35,0-13.73.21-23.25,6.47-22.67,21,.54,13.79,10.16,18.5,23.16,18.36,24.11-.25,48.23,0,72.35-.1,14.43-.07,24.7,5.65,24.62,21.07s-10.53,21-24.91,20.79C968.43,601.66,955.49,601.8,942.55,601.79Z"/><path class="cls-3" d="M252.34,514.11c0-18.82-1.05-37.71.3-56.43,1.1-15.23-4.54-19.85-18.79-17.83-6.34.9-12.91.21-19.38.12-13.27-.2-21.57-6.93-21.87-20.14-.31-13.49,8.6-20.3,21.33-20.93,14.66-.73,29.39-.23,44.09-.24,23.53,0,47.05-.24,70.57.08,18,.25,26.85,7.7,25.92,21.56-1.06,15.93-11.63,19.67-25.69,19.82-34.71.38-34.7.63-34.7,34.61s-.28,68.22.13,102.33c.16,14-5.4,22.81-19.44,24.51-12.27,1.48-21.88-8.64-22.31-24C251.92,556.46,252.36,535.28,252.34,514.11Z"/><path class="cls-4" d="M204.57,777.26c4.28.55,6.43.74,12.73,3.86,80.7,35.88,116.46,45.11,180.2,39C506.17,809.59,587,754.52,639.58,658.72c3.18-5.8,3-13.45,4.38-20.24a85.9,85.9,0,0,1,8.72-.81c23.66.08,31.51,11.11,18,30.78-21.8,31.65-43.39,64.84-71.28,90.66-105.07,97.27-269.32,106.54-387,25C209.51,782.2,207.15,779.57,204.57,777.26Z"/><path class="cls-4" d="M573,223c-6.72-1.05-15.67-6.91-21.34-9.86-89.16-46.42-180.21-48.17-271.13-7.9-63.08,27.94-109.88,75.19-141.81,136.54-2.8,5.37-2.45,12.39-3.56,18.65-4.09.24-8.21,1-12.26.65-18.81-1.47-24.08-9.77-16-27,16.7-35.56,40.73-65.82,69.41-92.44C281.85,143.71,440.34,136.46,565,216,567.77,217.77,573,222,573,223Z"/><path class="cls-3" d="M714.17,501.22c0-24.67,0-49.34,0-74,.06-19.12,7.08-28.5,21-28.32,13.2.17,20.68,10.39,20.75,29.13.13,37.59.72,75.2-.3,112.77-.4,14.69,2.23,21.35,18.77,19.57,15.68-1.68,31.68-.45,47.54-.32,13.46.11,23.45,5.56,23.65,20.19.22,15.31-9.38,21.63-24,21.59-27.61-.08-55.22.21-82.82-.11-17.55-.2-24.35-7.16-24.52-24.72C714,551.74,714.17,526.48,714.17,501.22Z"/><path class="cls-4" d="M194,769.15c3.25,2.48,6.5,5,9.72,7.45Q198.88,772.88,194,769.15Z"/><path class="cls-4" d="M188.58,764.15l5.65,5.1C192.34,767.56,190.46,765.85,188.58,764.15Z"/></g></svg>