<?xml version="1.0" encoding="UTF-8" standalone="no"?>
<svg xmlns:dc="http://purl.org/dc/elements/1.1/" xmlns:cc="http://creativecommons.org/ns#" xmlns:rdf="http://www.w3.org/1999/02/22-rdf-syntax-ns#"
    xmlns="http://www.w3.org/2000/svg" id="svg9078" version="1.1" viewBox="0 0 28.575001 28.575001"
    height="108" width="108">
  <defs
     id="defs9072" />
  <metadata
     id="metadata9075">
    <rdf:RDF>
      <cc:Work
         rdf:about="">
        <dc:format>image/svg+xml</dc:format>
        <dc:type
           rdf:resource="http://purl.org/dc/dcmitype/StillImage" />
        <dc:title></dc:title>
      </cc:Work>
    </rdf:RDF>
  </metadata>
  <g
     style="opacity:0.93999999"
     transform="translate(0,-268.42499)"
     id="layer1">
    <path
       id="text9016"
       d="m 17.991985,284.5221 v 0.1218 h 0.179229 v -0.1218 z m -0.330275,0.008 c -0.08244,0 -0.145613,0.0167 -0.189678,0.0496 -0.04376,0.0329 -0.06555,0.0742 -0.06555,0.12376 0,0.0385 0.01534,0.072 0.04591,0.10052 0.03058,0.0286 0.09948,0.0517 0.207095,0.0694 0.02818,0.005 0.04779,0.0103 0.05858,0.0168 0.01109,0.006 0.01678,0.015 0.01678,0.0263 0,0.0216 -0.02389,0.0322 -0.07125,0.0322 -0.06085,0 -0.09868,-0.0212 -0.113363,-0.0636 l -0.174796,0.0271 c 0.03507,0.1069 0.127491,0.16017 0.277076,0.16017 0.08184,0 0.147867,-0.0164 0.198228,-0.0493 0.05036,-0.0332 0.07537,-0.0762 0.07537,-0.12937 0,-0.0336 -0.01035,-0.063 -0.03103,-0.0876 -0.02068,-0.0249 -0.04639,-0.0424 -0.07726,-0.0526 -0.03088,-0.0103 -0.08299,-0.0222 -0.15643,-0.0355 -0.02668,-0.005 -0.04454,-0.01 -0.05383,-0.0154 -0.0093,-0.005 -0.01393,-0.0129 -0.01393,-0.0227 0,-0.0218 0.02036,-0.0328 0.06143,-0.0328 0.04946,0 0.08229,0.0174 0.09848,0.0527 l 0.156112,-0.0403 c -0.04017,-0.0861 -0.122939,-0.12936 -0.247943,-0.12936 z m 2.602618,0 c -0.03118,0.0419 -0.09041,0.0712 -0.177646,0.0874 v 0.11816 c 0.03237,-0.004 0.07734,-0.0165 0.134897,-0.0384 v 0.25004 h -0.15168 v 0.11704 h 0.472138 v -0.11704 h -0.144713 v -0.41721 z m 0.573469,0 c -0.07404,0 -0.131879,0.0157 -0.173846,0.0468 -0.04167,0.0308 -0.0627,0.0694 -0.0627,0.11536 0,0.0522 0.02569,0.0904 0.07695,0.1148 -0.06385,0.0242 -0.09563,0.0638 -0.09563,0.119 0,0.0437 0.02071,0.0791 0.06238,0.10613 0.04167,0.027 0.101272,0.0403 0.178912,0.0403 0.07764,0 0.140099,-0.014 0.187463,-0.0426 0.04766,-0.0285 0.07156,-0.0691 0.07156,-0.12152 0,-0.0578 -0.03318,-0.10114 -0.09943,-0.12992 0.03387,-0.0193 0.05562,-0.0371 0.06491,-0.0535 0.0096,-0.0167 0.01425,-0.0348 0.01425,-0.054 0,-0.0424 -0.02105,-0.0765 -0.06302,-0.1022 -0.04167,-0.0257 -0.09556,-0.0386 -0.161812,-0.0386 z m 0.539586,0 c -0.07404,0 -0.131878,0.0157 -0.173846,0.0468 -0.04167,0.0308 -0.0627,0.0694 -0.0627,0.11536 0,0.0522 0.02569,0.0904 0.07695,0.1148 -0.06385,0.0242 -0.09563,0.0638 -0.09563,0.119 0,0.0437 0.02071,0.0791 0.06238,0.10613 0.04167,0.027 0.101272,0.0403 0.178912,0.0403 0.07764,0 0.140098,-0.014 0.187462,-0.0426 0.04766,-0.0285 0.07156,-0.0691 0.07156,-0.12152 0,-0.0578 -0.03318,-0.10114 -0.09943,-0.12992 0.03387,-0.0193 0.05562,-0.0371 0.06491,-0.0535 0.0096,-0.0167 0.01425,-0.0348 0.01425,-0.054 0,-0.0424 -0.02105,-0.0765 -0.06302,-0.1022 -0.04167,-0.0257 -0.09556,-0.0386 -0.161812,-0.0386 z m 0.525337,0 c -0.07194,0 -0.129396,0.0171 -0.172262,0.0509 -0.04257,0.0336 -0.06397,0.077 -0.06397,0.1302 0,0.0485 0.01819,0.0888 0.05446,0.12013 0.03627,0.0314 0.08197,0.047 0.13743,0.047 0.05276,0 0.09272,-0.0171 0.119697,-0.051 3.24e-4,0.006 6.74e-4,0.0116 6.74e-4,0.0157 0,0.036 -0.0071,0.0643 -0.0209,0.0848 -0.01349,0.0205 -0.03312,0.0308 -0.0589,0.0308 -0.03267,0 -0.05231,-0.016 -0.0589,-0.0484 l -0.15738,0.0216 c 0.0081,0.0437 0.03058,0.0781 0.06745,0.10333 0.03717,0.0249 0.08427,0.0372 0.141229,0.0372 0.08693,0 0.152246,-0.0266 0.196013,-0.0798 0.04406,-0.0532 0.06618,-0.12182 0.06618,-0.20636 0,-0.0768 -0.02106,-0.13888 -0.06333,-0.18565 -0.04227,-0.047 -0.104725,-0.0706 -0.187462,-0.0706 z m -1.07664,0.10416 c 0.02578,0 0.04576,0.005 0.05985,0.016 0.01409,0.0103 0.02121,0.0232 0.02121,0.0392 0,0.0216 -0.01284,0.0377 -0.03832,0.0484 l -0.05605,-0.0196 c -0.02998,-0.0103 -0.04497,-0.0253 -0.04497,-0.0454 0,-0.0108 0.005,-0.02 0.0152,-0.0275 0.01049,-0.007 0.02478,-0.0112 0.04307,-0.0112 z m 0.539586,0 c 0.02578,0 0.04576,0.005 0.05985,0.016 0.01409,0.0103 0.02121,0.0232 0.02121,0.0392 0,0.0216 -0.01284,0.0377 -0.03832,0.0484 l -0.05605,-0.0196 c -0.02998,-0.0103 -0.04497,-0.0253 -0.04497,-0.0454 0,-0.0108 0.005,-0.02 0.0152,-0.0275 0.01049,-0.007 0.02478,-0.0112 0.04307,-0.0112 z m 0.537054,0.004 c 0.01919,0 0.03491,0.006 0.0475,0.0177 0.0126,0.0118 0.019,0.0279 0.019,0.0482 0,0.0201 -0.0071,0.0354 -0.0209,0.0465 -0.0138,0.0108 -0.02953,0.0163 -0.04781,0.0163 -0.01828,0 -0.03361,-0.005 -0.0456,-0.0165 -0.01169,-0.0111 -0.01741,-0.0264 -0.01741,-0.046 0,-0.0221 0.0061,-0.0385 0.01868,-0.0496 0.01289,-0.0111 0.02856,-0.0165 0.04655,-0.0165 z m -3.339166,0.0266 c -0.06325,0 -0.107149,0.0212 -0.13173,0.0636 v -0.0557 h -0.166562 v 0.39201 h 0.179545 v -0.23548 c 0,-0.0391 0.01609,-0.0585 0.04876,-0.0585 0.01109,0 0.02036,0.003 0.02755,0.008 0.0075,0.006 0.0114,0.0186 0.0114,0.0389 v 0.24669 h 0.179229 V 284.814 c 0,-0.0429 -0.005,-0.0729 -0.01488,-0.0902 -0.0099,-0.0175 -0.02632,-0.0315 -0.0494,-0.0423 -0.02278,-0.0111 -0.05064,-0.0165 -0.08391,-0.0165 z m 0.452822,0 c -0.06925,0 -0.12563,0.0195 -0.169096,0.0585 -0.04316,0.0388 -0.06492,0.0883 -0.06492,0.1484 0,0.0589 0.02177,0.10698 0.06523,0.14476 0.04376,0.0375 0.100516,0.0563 0.170362,0.0563 0.06235,0 0.112309,-0.0144 0.14978,-0.0431 0.03777,-0.0288 0.06025,-0.066 0.06745,-0.11172 l -0.152946,-0.0112 c -0.006,0.0388 -0.02492,0.0582 -0.057,0.0582 -0.02188,0 -0.03724,-0.008 -0.04623,-0.0232 -0.0087,-0.0155 -0.0133,-0.039 -0.0133,-0.0711 0,-0.0373 0.0046,-0.0635 0.0133,-0.0784 0.009,-0.0152 0.02293,-0.0227 0.04212,-0.0227 0.02998,0 0.04819,0.0208 0.05478,0.0622 l 0.157062,-0.0112 c -0.0057,-0.045 -0.02783,-0.0822 -0.0665,-0.11145 -0.03867,-0.0295 -0.08864,-0.0442 -0.150096,-0.0442 z m 0.497154,0 c -0.07554,0 -0.135863,0.0202 -0.181129,0.0605 -0.04527,0.0404 -0.06808,0.0898 -0.06808,0.1484 0,0.0565 0.02317,0.10395 0.06903,0.14224 0.04587,0.038 0.107255,0.0568 0.184295,0.0568 0.06925,0 0.124194,-0.0133 0.164663,-0.0403 0.04077,-0.0272 0.06579,-0.0603 0.07568,-0.0988 l -0.167196,-0.01 c -0.0069,0.0321 -0.02974,0.0482 -0.06872,0.0482 -0.02698,0 -0.04519,-0.006 -0.05478,-0.0177 -0.0096,-0.0121 -0.01491,-0.0305 -0.01552,-0.0552 h 0.306208 c 2.92e-4,-0.009 6.13e-4,-0.017 6.13e-4,-0.0224 0,-0.0655 -0.02282,-0.11737 -0.06808,-0.1554 -0.04496,-0.038 -0.103869,-0.0568 -0.177012,-0.0568 z m -1.521545,0.008 v 0.39201 h 0.179229 v -0.39201 z m 1.523445,0.0826 c 0.01799,0 0.03297,0.005 0.04497,0.014 0.01229,0.009 0.01838,0.0267 0.01868,0.0532 h -0.127614 c 0,-0.0447 0.0214,-0.0672 0.06396,-0.0672 z m 1.269484,0.10473 0.06967,0.023 c 0.03507,0.0115 0.05256,0.0273 0.05256,0.0473 0,0.0121 -0.0064,0.0219 -0.019,0.0297 -0.01259,0.007 -0.03079,0.0112 -0.05446,0.0112 -0.02938,0 -0.05188,-0.005 -0.06777,-0.0163 -0.01589,-0.0108 -0.02375,-0.0241 -0.02375,-0.0401 0,-0.0216 0.01427,-0.04 0.04275,-0.0549 z m 0.539587,0 0.06966,0.023 c 0.03508,0.0115 0.05256,0.0273 0.05256,0.0473 0,0.0121 -0.0064,0.0219 -0.019,0.0297 -0.01259,0.007 -0.03079,0.0112 -0.05446,0.0112 -0.02938,0 -0.05188,-0.005 -0.06776,-0.0163 -0.01589,-0.0108 -0.02375,-0.0241 -0.02375,-0.0401 -1e-6,-0.0216 0.01427,-0.04 0.04275,-0.0549 z"
       style="font-weight:800;font-size:1.47969508px;font-family:FranklinGothic-Heavy, 'Franklin Gothic Heavy';fill:#58585a;stroke:#000000;stroke-width:0.01662688;stroke-opacity:1" />
    <path
       class="cls-3"
       d="m 15.373032,278.33817 c 0.621777,0.38917 1.091652,0.90565 1.433349,1.52281 0.08238,0.14995 0.291612,0.33375 0.0091,0.48524 -0.261462,0.14008 -0.387169,-0.0491 -0.497883,-0.22615 -0.404138,-0.64656 -1.008286,-1.03142 -1.779329,-1.20076 -1.274527,-0.28203 -2.551361,0.25555 -3.168854,1.32592 -0.03987,0.0691 -0.148278,0.14671 -0.22637,0.14717 -1.035142,0.006 -2.0704479,-0.001 -3.1057541,-0.005 0.018288,-0.0964 0.012521,-0.20444 0.058652,-0.28711 0.5260555,-0.94444 1.2970983,-1.67182 2.3363591,-2.10194 1.497931,-0.61993 2.998499,-0.59299 4.46694,0.12161 a 1.248661,1.1667404 0 0 0 0.285187,0.10499"
       id="path9018"
       style="fill:#ec1e26;stroke-width:0.01592566" />
    <path
       class="cls-3"
       d="m 8.9498175,286.61727 c -0.6224359,-0.42642 -1.0463446,-0.99986 -1.371237,-1.64165 -0.028832,-0.0571 0.014663,-0.20521 0.064748,-0.22569 0.1003344,-0.0412 0.2492709,-0.0616 0.3393906,-0.0196 0.1003344,0.0473 0.1647528,0.16934 0.2321366,0.26756 0.5931099,0.86562 1.4628395,1.24479 2.5345563,1.20338 1.038931,-0.04 1.848031,-0.47215 2.355964,-1.3484 0.04547,-0.0782 0.157174,-0.17442 0.238726,-0.17488 1.035801,-0.008 2.071766,0 3.107566,0.005 -0.0229,0.10452 -0.01977,0.22229 -0.07216,0.31158 -0.865611,1.47478 -2.197307,2.32255 -3.987675,2.48403 -1.050134,0.0947 -2.05562,-0.0724 -2.9688445,-0.60038 -0.055192,-0.0319 -0.1392161,-0.0509 -0.2097302,-0.0594 0,0 -0.013839,-0.01 -0.01351,-0.0101 -0.05305,-0.0385 -0.106595,-0.077 -0.1601397,-0.11469 l 0.01038,-0.0129 c 0,0 -0.00725,0.0154 -0.00708,0.0145 z"
       id="path9020"
       style="fill:#ec1e26;stroke-width:0.01592566" />
    <path
       class="cls-3"
       d="m 7.1665339,284.11784 c -0.1744731,0 -0.3489463,0 -0.5234195,0 -0.362456,-10e-4 -0.4967295,-0.0862 -0.5001893,-0.31512 -0.00346,-0.2343 0.133944,-0.32744 0.4871739,-0.32821 0.3683871,0 0.7366095,-0.005 1.1048318,0.002 0.2331251,0.004 0.3878279,-0.0887 0.3871689,-0.30788 0,-0.20629 -0.1616224,-0.29619 -0.3723412,-0.29973 -0.2107187,-0.004 -0.4265448,0.002 -0.6397348,-0.002 -0.5021663,-0.008 -0.9268989,-0.36623 -0.9652863,-0.81051 -0.047119,-0.54343 0.2749723,-0.98525 0.8214572,-1.03543 0.499036,-0.0462 1.0049916,-0.0285 1.5088055,-0.0253 0.2021516,0.002 0.3336242,0.12685 0.3329653,0.31143 -8.211e-4,0.19428 -0.1230704,0.31881 -0.3502644,0.31897 -0.3876631,0 -0.7753263,0 -1.1629895,0 -0.317808,10e-4 -0.4894804,0.11207 -0.4850321,0.3105 0.00445,0.19289 0.178592,0.29989 0.4959058,0.30235 0.1647527,0.002 0.3295055,-0.003 0.4942582,0.001 0.5702092,0.0136 1.0049916,0.40826 1.0170186,0.91981 0.011862,0.51602 -0.43643,0.94199 -1.010758,0.95584 -0.2130253,0.007 -0.4263801,0.002 -0.6395701,0.002 z"
       id="path9022"
       style="fill:#ec1e26;stroke-width:0.01592566" />
    <path
       class="cls-3"
       d="m 13.349539,284.11784 c -0.20314,0 -0.406445,0.004 -0.609585,0 -0.794273,-0.0188 -1.259864,-0.7651 -0.871707,-1.41136 0.07266,-0.12084 0.06442,-0.19073 -0.0058,-0.30788 -0.361467,-0.60316 0.03163,-1.32823 0.770878,-1.39058 0.470369,-0.0397 0.947329,-0.0179 1.421158,-0.0125 0.214178,0.002 0.355865,0.11792 0.349769,0.32174 -0.0066,0.2166 -0.155691,0.31374 -0.387827,0.31143 -0.387005,-0.004 -0.774338,10e-4 -1.161013,-0.002 -0.225547,-0.002 -0.411882,0.0483 -0.438078,0.2925 -0.02076,0.19797 0.144653,0.31527 0.437254,0.32036 0.232137,0.004 0.464438,-0.002 0.696575,0.002 0.220274,0.004 0.347793,0.10699 0.34318,0.31821 -0.0046,0.21121 -0.135098,0.30788 -0.354384,0.30788 q -0.362455,0 -0.725735,0 c -0.224394,-5.4e-4 -0.391947,0.0878 -0.395407,0.30635 -0.0033,0.22307 0.160964,0.30512 0.390464,0.30173 0.387004,-0.006 0.774338,-0.004 1.161178,-5.4e-4 0.283868,0.003 0.453234,0.125 0.435441,0.32621 -0.02224,0.25108 -0.201987,0.32497 -0.447139,0.31773 -0.202646,-0.006 -0.405457,-0.001 -0.609256,-0.001 z"
       id="path9024"
       style="fill:#ec1e26;stroke-width:0.01592566" />
    <path
       class="cls-3"
       d="m 16.193666,284.11784 c -0.203305,0 -0.406775,0.005 -0.609586,-10e-4 -0.778621,-0.0229 -1.244542,-0.76387 -0.866599,-1.39674 0.0776,-0.13008 0.07381,-0.2032 -0.002,-0.33098 -0.353559,-0.59653 0.03114,-1.31237 0.757862,-1.37656 0.47976,-0.0425 0.966605,-0.0225 1.449825,-0.0145 0.210389,0.004 0.347298,0.11977 0.334777,0.33083 -0.01252,0.21105 -0.155032,0.29819 -0.369869,0.29819 -0.39689,0 -0.79378,0.002 -1.190669,0 -0.229665,-0.002 -0.415506,0.0603 -0.418966,0.3068 -0.0034,0.25417 0.195891,0.30435 0.418307,0.30666 0.232302,0.002 0.464603,0 0.696905,10e-4 0.219121,0 0.360643,0.10283 0.363279,0.30573 0.0028,0.21552 -0.134109,0.32621 -0.372176,0.32205 -0.232301,-0.004 -0.464603,0 -0.696904,-0.001 -0.232302,-10e-4 -0.413365,0.069 -0.409246,0.31512 0.004,0.23092 0.174473,0.29573 0.397878,0.29249 0.387169,-0.005 0.774338,0 1.161507,-0.002 0.231806,-10e-4 0.40315,0.0694 0.420448,0.31189 0.01499,0.21306 -0.134932,0.32728 -0.425885,0.33144 -0.213026,0.004 -0.426051,4.7e-4 -0.638911,3.1e-4 z"
       id="path9026"
       style="fill:#ec1e26;stroke-width:0.01592566" />
    <path
       class="cls-3"
       d="m 21.371679,284.11784 c -0.203634,0 -0.407268,0.004 -0.610573,0 -0.784553,-0.0181 -1.24932,-0.74447 -0.882087,-1.38934 0.06986,-0.12316 0.08551,-0.20013 0.0064,-0.33422 -0.362455,-0.61131 0.03295,-1.32684 0.777304,-1.38672 0.471358,-0.038 0.94881,-0.0196 1.423134,-0.0102 0.211213,0.004 0.348452,0.12424 0.336919,0.33221 -0.01153,0.20798 -0.150913,0.29958 -0.369375,0.29866 -0.397384,-0.002 -0.794768,0.003 -1.191987,-0.002 -0.234607,-0.003 -0.416659,0.0693 -0.418965,0.30927 -0.0025,0.24862 0.195561,0.30558 0.421766,0.30542 0.21319,0 0.42638,0.002 0.63957,0 0.231643,-0.003 0.413365,0.0616 0.414683,0.3102 0.0012,0.24323 -0.1664,0.32328 -0.404797,0.31882 -0.232466,-0.004 -0.465262,-0.003 -0.697728,0 -0.226206,0.003 -0.383051,0.0996 -0.373494,0.32328 0.0089,0.21229 0.167388,0.2848 0.381567,0.28264 0.397218,-0.004 0.794602,0 1.191985,-0.002 0.237739,-10e-4 0.40694,0.087 0.405622,0.32436 -0.0013,0.23738 -0.173485,0.32328 -0.410399,0.32005 -0.21319,-0.003 -0.42638,-10e-4 -0.639571,-0.002 z"
       id="path9028"
       style="fill:#ec1e26;stroke-width:0.01592566" />
    <path
       class="cls-3"
       d="m 10.000281,282.76806 c 0,-0.28972 -0.017299,-0.58052 0.0049,-0.8687 0.01812,-0.23446 -0.074798,-0.30558 -0.3095705,-0.27448 -0.1044532,0.0139 -0.2126957,0.003 -0.3192908,0.002 -0.2186269,-0.003 -0.3553716,-0.10668 -0.3603142,-0.31004 -0.0051,-0.20767 0.1416873,-0.31251 0.3514176,-0.32221 0.2415275,-0.0112 0.4842083,-0.004 0.7263949,-0.004 0.387663,0 0.775162,-0.004 1.16266,10e-4 0.296555,0.004 0.442361,0.11854 0.427039,0.3319 -0.01746,0.24524 -0.191607,0.30281 -0.42325,0.30512 -0.571856,0.006 -0.571692,0.01 -0.571692,0.5328 0,0.5231 -0.0046,1.0502 0.0021,1.57531 0.0026,0.21552 -0.08897,0.35114 -0.320279,0.37731 -0.202152,0.0228 -0.360479,-0.133 -0.367564,-0.36947 -0.00956,-0.32497 -0.0023,-0.65102 -0.0026,-0.97692 z"
       id="path9030"
       style="fill:#ec1e26;stroke-width:0.01592566" />
    <path
       class="cls-4"
       d="m 9.2132571,286.81909 c 0.070514,0.008 0.105936,0.0114 0.2097302,0.0594 1.3295547,0.55235 1.9187107,0.69444 2.9688447,0.60038 1.790368,-0.16211 3.122064,-1.00988 3.988334,-2.48466 0.05239,-0.0893 0.04943,-0.20705 0.07216,-0.31158 a 1.415226,1.3223777 0 0 1 0.143665,-0.0125 c 0.389805,0.001 0.519136,0.17103 0.296555,0.47384 -0.359161,0.48723 -0.714862,0.99817 -1.174358,1.39566 -1.731057,1.49741 -4.43712,1.64012 -6.3759305,0.38486 -0.047614,-0.0294 -0.086495,-0.0699 -0.1290014,-0.10546 z"
       id="path9032"
       style="fill:#a01014;stroke-width:0.01592566" />
    <path
       class="cls-4"
       d="m 15.283242,278.2866 c -0.110714,-0.0161 -0.258168,-0.10637 -0.351582,-0.15179 -1.468935,-0.7146 -2.96901,-0.74155 -4.466941,-0.12161 -1.0392604,0.43011 -1.8103032,1.1575 -2.3363587,2.10195 -0.046131,0.0827 -0.040365,0.19073 -0.058652,0.2871 -0.067384,0.004 -0.1352621,0.0154 -0.2019869,0.01 -0.3098999,-0.0226 -0.3967246,-0.1504 -0.2636044,-0.41565 0.2751371,-0.54743 0.6710379,-1.01326 1.1435487,-1.42306 1.7388003,-1.50757 4.3499663,-1.61918 6.4037743,-0.39471 0.04563,0.0273 0.131802,0.0924 0.131802,0.10776 z"
       id="path9034"
       style="fill:#a01014;stroke-width:0.01592566" />
    <path
       class="cls-3"
       d="m 17.609056,282.56963 c 0,-0.37978 0,-0.75956 0,-1.13919 9.81e-4,-0.29434 0.116645,-0.43874 0.345981,-0.43597 0.217474,0.003 0.340709,0.15995 0.341862,0.44844 0.0021,0.57868 0.01186,1.15766 -0.005,1.73603 -0.0066,0.22614 0.03674,0.32867 0.309241,0.30126 0.258332,-0.0258 0.521936,-0.007 0.783234,-0.005 0.221757,0.002 0.386345,0.0856 0.38964,0.31081 0.0036,0.23569 -0.154538,0.33298 -0.395406,0.33237 -0.454883,-10e-4 -0.909765,0.003 -1.364482,-0.002 -0.289142,-0.003 -0.401174,-0.11022 -0.403974,-0.38055 -0.004,-0.38886 -0.0012,-0.77772 -0.0012,-1.16658 z"
       id="path9036"
       style="fill:#ec1e26;stroke-width:0.01592566" />
    <path
       class="cls-4"
       d="m 9.0391135,286.69425 c 0.053545,0.0381 0.1070892,0.077 0.1601396,0.11468 q -0.07974,-0.0573 -0.1601396,-0.11468 z"
       id="path9038"
       style="fill:#a01014;stroke-width:0.01592566" />
    <path
       class="cls-4"
       d="m 8.9498175,286.61727 0.093085,0.0785 c -0.031138,-0.026 -0.062112,-0.0523 -0.093085,-0.0785 z"
       id="path9040"
       style="fill:#a01014;stroke-width:0.01592566" />
  </g>
</svg>
