<svg id="App_Icon_Kit_A" data-name="App Icon Kit A" xmlns="http://www.w3.org/2000/svg" xmlns:xlink="http://www.w3.org/1999/xlink" viewBox="0 0 2330.15 1162.15"><defs><style>.cls-1{font-size:51.28px;fill:#58585a;font-family:FranklinGothic-Heavy, Franklin Gothic Heavy;font-weight:800;}.cls-2{letter-spacing:0.01em;}.cls-3{fill:#ec1e26;}.cls-4{fill:#a01014;}.cls-5{opacity:0.71;}.cls-6{fill:#fe1211;}.cls-7,.cls-8{font-size:32px;fill:#fff;}.cls-10,.cls-11,.cls-12,.cls-7,.cls-8,.cls-9{font-family:OpenSans, Open Sans;}.cls-8{letter-spacing:0.02em;}.cls-9{font-size:33px;}.cls-10{font-size:20px;}.cls-11{font-size:19.96px;}.cls-12{font-size:19.96px;}</style><symbol id="Icon" data-name="Icon" viewBox="0 0 988.35 677.59"><text class="cls-1" transform="translate(677.58 518.07) scale(1.09 1)">Since <tspan class="cls-2" x="146.24" y="0">1</tspan><tspan x="176.93" y="0">889</tspan></text><path class="cls-3" d="M560.41,64.65c37.74,25.28,66.26,58.83,87,98.93,5,9.73,17.7,21.68.55,31.51-15.87,9.1-23.5-3.19-30.22-14.69-24.54-42-61.2-66.95-108-78C432.35,84,354.84,119,317.37,188.49c-2.42,4.49-9,9.53-13.74,9.56-62.83.39-125.67-.07-188.51-.32,1.11-6.26.76-13.28,3.56-18.65,31.93-61.35,78.73-108.6,141.81-136.54C351.4,2.27,442.46,4,531.62,50.44A75.16,75.16,0,0,0,549,57.3"/><path class="cls-3" d="M170.54,602.45c-37.78-27.7-63.51-65-83.23-106.64-1.75-3.71.89-13.33,3.93-14.66,6.09-2.67,15.13-4,20.6-1.27,6.09,3.07,10,11,14.09,17.38,36,56.23,88.79,80.86,153.84,78.17,63.06-2.6,112.17-30.67,143-87.59,2.76-5.08,9.54-11.32,14.49-11.36,62.87-.51,125.75,0,188.62.3-1.39,6.79-1.2,14.44-4.39,20.24C569,592.82,488.12,647.89,379.46,658.38c-63.74,6.15-124.77-4.7-180.2-39-3.35-2.06-8.45-3.3-12.74-3.86,0,0-.83-.65-.81-.66-3.22-2.49-6.47-5-9.72-7.45l.63-.84s-.44.95-.43.94Z"/><path class="cls-3" d="M62.3,440.1c-10.59,0-21.18,0-31.77,0C8.57,440,.38,434.5.17,419.62,0,404.4,8.3,398.35,29.74,398.31c22.36,0,44.71-.3,67.06.1,14.15.24,23.54-5.77,23.5-20,0-13.4-9.81-19.23-22.61-19.47s-25.88.13-38.82-.1c-30.48-.53-56.26-23.79-58.6-52.65-2.85-35.3,16.7-64,49.87-67.26,30.29-3,61-1.84,91.58-1.63,12.27.08,20.25,8.24,20.21,20.22-.05,12.63-7.47,20.71-21.26,20.73-23.53,0-47.06,0-70.59,0-19.29.07-29.72,7.28-29.44,20.17C40.91,311,51.48,318,70.74,318.14c10,.08,20-.2,30,.06,34.6.88,61,26.53,61.73,59.75.72,33.53-26.49,61.2-61.35,62.09C88.19,440.37,75.24,440.09,62.3,440.1Z"/><path class="cls-3" d="M437.59,440.1c-12.33,0-24.67.26-37-.05-48.21-1.21-76.47-49.7-52.91-91.68,4.41-7.85,3.91-12.39-.35-20-21.94-39.18,1.91-86.28,46.79-90.33,28.55-2.57,57.5-1.16,86.26-.81,13,.16,21.6,7.67,21.22,20.9-.39,14.08-9.44,20.39-23.53,20.23-23.49-.26-47,.07-70.48-.12-13.68-.11-25,3.14-26.58,19-1.26,12.86,8.78,20.49,26.54,20.81,14.09.25,28.19-.1,42.28.14,13.37.22,21.11,6.95,20.83,20.66s-8.2,20-21.52,20c-14.68,0-29.36.06-44,0-13.62,0-23.79,5.7-24,19.9-.2,14.5,9.77,19.83,23.7,19.6,23.49-.37,47-.25,70.48,0,17.23.15,27.51,8.12,26.43,21.18-1.35,16.31-12.26,21.12-27.14,20.64C462.27,439.78,449.92,440.1,437.59,440.1Z"/><path class="cls-3" d="M610.22,440.09c-12.34,0-24.69.33-37-.06-47.29-1.49-75.53-49.61-52.59-90.74,4.72-8.46,4.49-13.21-.11-21.51-21.46-38.75,1.89-85.25,46-89.42,29.12-2.76,58.67-1.46,88-.93,12.78.23,21.09,7.78,20.33,21.48s-9.38,19.37-22.42,19.38c-24.09,0-48.18.12-72.27,0-13.94-.09-25.22,3.92-25.43,19.93-.21,16.51,11.89,19.77,25.39,19.92,14.1.16,28.2,0,42.3.07,13.3,0,21.89,6.68,22,19.87.17,13.94-8.14,21.18-22.59,20.91-14.1-.25-28.2,0-42.31-.06s-25.08,4.47-24.83,20.46c.24,15,10.59,19.21,24.15,19,23.49-.32,47,0,70.5-.12,14.06-.07,24.47,4.51,25.52,20.26.91,13.84-8.19,21.26-25.85,21.53C636.07,440.26,623.14,440.1,610.22,440.09Z"/><path class="cls-3" d="M924.5,440.1c-12.35,0-24.71.25-37-.05-47.62-1.19-75.83-48.37-53.54-90.26,4.24-8,5.19-13,.39-21.71-22-39.71,2-86.19,47.18-90.08,28.61-2.47,57.59-1.27,86.38-.65,12.81.27,21.15,8.06,20.45,21.57s-9.16,19.46-22.42,19.4c-24.12-.1-48.24.19-72.36-.1-14.24-.17-25.28,4.5-25.42,20.09C868,314.46,880,318.16,893.7,318.15c12.95,0,25.89.14,38.83,0,14.06-.19,25.09,4,25.16,20.15.08,15.8-10.09,21-24.56,20.71-14.11-.28-28.24-.21-42.35,0-13.73.21-23.25,6.47-22.68,21,.55,13.8,10.17,18.5,23.17,18.36,24.11-.25,48.23,0,72.35-.1,14.43-.06,24.7,5.65,24.61,21.08s-10.52,21-24.9,20.78C950.39,440,937.45,440.1,924.5,440.1Z"/><path class="cls-3" d="M234.3,352.41c0-18.82-1.05-37.71.3-56.43,1.1-15.23-4.54-19.85-18.79-17.83-6.34.9-12.92.21-19.38.12-13.27-.2-21.57-6.93-21.87-20.14-.31-13.48,8.6-20.3,21.33-20.93,14.66-.72,29.39-.23,44.09-.23,23.53,0,47-.25,70.57.08,18,.24,26.85,7.69,25.92,21.55-1.06,15.93-11.63,19.67-25.69,19.82-34.71.38-34.7.63-34.7,34.62s-.28,68.22.13,102.32c.16,14-5.4,22.81-19.44,24.51-12.27,1.48-21.88-8.64-22.31-23.95C233.88,394.76,234.32,373.58,234.3,352.41Z"/><path class="cls-4" d="M186.52,615.56c4.29.56,6.44.74,12.74,3.86,80.7,35.88,116.46,45.11,180.2,39C488.12,647.89,569,592.82,621.53,497c3.19-5.8,3-13.45,4.39-20.24,2.91-.28,5.82-.82,8.72-.81,23.66.08,31.51,11.11,18,30.78-21.8,31.66-43.39,64.84-71.28,90.66C476.25,694.68,312,704,194.3,622.46,191.47,620.5,189.11,617.87,186.52,615.56Z"/><path class="cls-4" d="M555,61.3c-6.72-1-15.67-6.9-21.34-9.86C444.46,5,353.4,3.27,262.49,43.54c-63.08,27.94-109.88,75.19-141.81,136.54-2.8,5.37-2.45,12.39-3.56,18.65-4.09.24-8.21,1-12.26.65-18.81-1.47-24.08-9.77-16-27,16.7-35.55,40.72-65.81,69.41-92.44C263.81-18,422.3-25.24,547,54.3,549.73,56.07,555,60.3,555,61.3Z"/><path class="cls-3" d="M696.13,339.52c0-24.67,0-49.34,0-74,.06-19.12,7.08-28.5,21-28.32,13.2.17,20.68,10.39,20.75,29.13.13,37.59.71,75.2-.3,112.77-.4,14.69,2.23,21.36,18.77,19.58,15.68-1.69,31.68-.46,47.54-.33,13.46.11,23.45,5.56,23.65,20.19.21,15.32-9.38,21.63-24,21.59-27.61-.08-55.22.21-82.82-.11-17.55-.2-24.35-7.16-24.52-24.71C696,390,696.13,364.78,696.13,339.52Z"/><path class="cls-4" d="M176,607.45c3.25,2.48,6.5,5,9.72,7.45C182.45,612.42,179.22,609.94,176,607.45Z"/><path class="cls-4" d="M170.54,602.45l5.65,5.1Q173.36,605,170.54,602.45Z"/></symbol></defs><title>Logo</title><g id="Notifications_and_Activity_-_Preview" data-name="Notifications and Activity - Preview"><g id="Loading"><use width="988.35" height="677.59" transform="translate(1843.5 1062.86) scale(0.12)" xlink:href="#Icon"/><g id="App_Icon_Loading_Indicator_Overlay" data-name="App Icon Loading Indicator Overlay" class="cls-5"><path d="M1918.07,1103.63a33,33,0,1,0,33,33,33.89,33.89,0,0,0-.52-5.83l-32.48,5.83Z" transform="translate(-18.04 -35.22)"/><path d="M1977,1094.65a25.49,25.49,0,0,0-15.23-15.23c-6.49-2.05-12.51-2.05-24.56-2.05h-36.32c-12.05,0-18.07,0-24.56,2.05a25.49,25.49,0,0,0-15.23,15.23c-2,6.49-2,12.51-2,24.56v36.32c0,12,0,18.07,2,24.56a25.49,25.49,0,0,0,15.23,15.23c6.49,2,12.51,2,24.56,2h36.32c12,0,18.07,0,24.56-2a25.49,25.49,0,0,0,15.23-15.23c2-6.49,2-12.51,2-24.56v-36.32C1979.07,1107.16,1979.07,1101.14,1977,1094.65Zm-58,81.72a39,39,0,1,1,39-39A39,39,0,0,1,1919.07,1176.37Z" transform="translate(-18.04 -35.22)"/></g></g><g id="Two_Digit_Badge" data-name="Two Digit Badge"><use width="988.35" height="677.59" transform="translate(1623 1062.49) scale(0.12)" xlink:href="#Icon"/><g id="Badge"><rect id="Badge_Background" data-name="Badge Background" class="cls-6" x="1695.53" y="1021.04" width="64" height="48" rx="24"/><text class="cls-7" transform="translate(1708.91 1056.31)">34</text></g></g><g id="One_Digit_Badge" data-name="One Digit Badge"><use width="988.35" height="677.59" transform="translate(1402 1062.33) scale(0.12)" xlink:href="#Icon"/><g id="Badge-2" data-name="Badge"><g id="Badge_Background-2" data-name="Badge Background"><rect class="cls-6" x="1492.53" y="1021.04" width="47" height="47" rx="22.25"/></g><text class="cls-8" transform="translate(1507.06 1056.31)">1</text></g></g><text class="cls-9" transform="translate(1405.53 947.85)">Notifications and Activity</text></g><g id="Settings_Icon_-_Preview_Sizes" data-name="Settings Icon - Preview Sizes"><g id="_29" data-name="29"><use width="988.35" height="677.59" transform="translate(2016.55 687.78) scale(0.03)" xlink:href="#Icon"/><text class="cls-10" transform="translate(2018.67 755.98)">29</text></g><g id="_58" data-name="58"><use width="988.35" height="677.59" transform="translate(1858.15 677.81) scale(0.06)" xlink:href="#Icon"/><text class="cls-10" transform="translate(1871.96 770.51)">58</text></g><g id="_87" data-name="87"><use width="988.35" height="677.59" transform="translate(1648.75 668.76) scale(0.08)" xlink:href="#Icon"/><text class="cls-10" transform="translate(1678.81 785.01)">87</text></g><text id="Settings_icon_text" data-name="Settings icon text" class="cls-9" transform="translate(1387.79 672.28)">Settings<tspan x="0" y="39.6">icon </tspan></text></g><g id="Spotlight_Icon_-_Preview_Sizes" data-name="Spotlight Icon - Preview Sizes"><g id="_29-2" data-name="29"><use width="988.35" height="677.59" transform="translate(2276.58 391.77) scale(0.03 0.03)" xlink:href="#Icon"/><text class="cls-11" transform="translate(2275.59 459.85)">29</text></g><g id="_40" data-name="40"><use width="988.35" height="677.59" transform="translate(2186.78 387.68) scale(0.04)" xlink:href="#Icon"/><text class="cls-10" transform="translate(2190.96 465.48)">40</text></g><g id="_58-2" data-name="58"><use width="988.35" height="677.59" transform="translate(2006.15 381.89) scale(0.06)" xlink:href="#Icon"/><text class="cls-10" transform="translate(2017.17 474.59)">58</text></g><g id="_80" data-name="80"><use width="988.35" height="677.59" transform="translate(1847.6 374.58) scale(0.08)" xlink:href="#Icon"/><text class="cls-10" transform="translate(1871.96 484.48)">80</text></g><g id="_120" data-name="120"><use width="988.35" height="677.59" transform="translate(1632.42 361.48) scale(0.12)" xlink:href="#Icon"/><text class="cls-10" transform="translate(1664.31 504.54)">120</text></g><text id="Spotlight_icon_text" data-name="Spotlight icon text" class="cls-9" transform="translate(1389.05 366.8)">Spotlight <tspan x="0" y="39.6">Icon </tspan></text></g><g id="App_Icon_-_Preview_Sizes" data-name="App Icon - Preview Sizes"><g id="_57" data-name="57"><use width="988.35" height="677.59" transform="translate(2275.13 62.61) scale(0.06)" xlink:href="#Icon"/><text class="cls-10" transform="translate(2287.56 154.98)">57</text></g><g id="_60" data-name="60"><use width="988.35" height="677.59" transform="translate(2181.19 61.13) scale(0.06)" xlink:href="#Icon"/><text class="cls-10" transform="translate(2194.96 155.48)">60</text></g><g id="_114" data-name="114"><use width="988.35" height="677.59" transform="translate(1999.41 43.41) scale(0.11)" xlink:href="#Icon"/><text class="cls-12" transform="translate(2037.2 182.16)">114</text></g><g id="_120-2" data-name="120"><use width="988.35" height="677.59" transform="translate(1844.42 41.48) scale(0.12)" xlink:href="#Icon"/><text class="cls-10" transform="translate(1881.96 184.48)">120</text></g><g id="_180" data-name="180"><text class="cls-10" transform="translate(1664.31 214.54)">180</text></g><text id="App_icon_text" data-name="App icon text" class="cls-9" transform="translate(1386.05 28.28)">App Icon </text><use width="988.35" height="677.59" transform="translate(1603.66 21.84) scale(0.18 0.18)" xlink:href="#Icon"/></g><g id="App_Icon_and_Badge_-_Main" data-name="App Icon and Badge - Main"><text class="cls-1" transform="translate(677.58 644.55) scale(1.09 1)">Since <tspan class="cls-2" x="146.24" y="0">1</tspan><tspan x="176.93" y="0">889</tspan></text><path class="cls-3" d="M578.45,226.35c37.74,25.28,66.26,58.83,87,98.92,5,9.74,17.7,21.68.55,31.52-15.87,9.1-23.5-3.19-30.22-14.69-24.53-42-61.2-67-108-78-77.36-18.32-154.86,16.6-192.34,86.13-2.42,4.49-9,9.53-13.74,9.56-62.83.39-125.67-.07-188.51-.32,1.11-6.26.76-13.28,3.56-18.65,31.93-61.35,78.73-108.6,141.81-136.54,90.92-40.27,182-38.52,271.13,7.9A75.79,75.79,0,0,0,567,219" transform="translate(-18.04 -35.22)"/><path class="cls-3" d="M188.58,764.15c-37.78-27.7-63.51-64.95-83.23-106.64-1.75-3.71.89-13.33,3.93-14.66,6.09-2.68,15.13-4,20.6-1.27,6.09,3.07,10,11,14.09,17.38,36,56.23,88.79,80.86,153.84,78.17,63.06-2.6,112.17-30.67,143-87.59,2.76-5.08,9.54-11.33,14.49-11.36,62.87-.51,125.75,0,188.62.3-1.39,6.79-1.2,14.44-4.38,20.24C587,754.52,506.17,809.59,397.5,820.08c-63.74,6.15-124.77-4.7-180.2-39-3.35-2.07-8.45-3.31-12.73-3.86,0,0-.84-.65-.82-.66-3.22-2.5-6.47-5-9.72-7.45l.63-.84s-.44,1-.43.94Z" transform="translate(-18.04 -35.22)"/><path class="cls-3" d="M80.34,601.79c-10.59,0-21.18,0-31.77,0-22-.06-30.15-5.6-30.36-20.47C18,566.1,26.34,560.05,47.78,560c22.36,0,44.71-.3,67.06.09,14.15.25,23.54-5.76,23.5-20,0-13.4-9.81-19.24-22.6-19.47s-25.89.12-38.83-.1c-30.48-.53-56.26-23.79-58.59-52.65-2.86-35.3,16.69-64,49.86-67.26,30.29-3,61-1.85,91.58-1.64,12.27.09,20.25,8.24,20.21,20.23-.05,12.62-7.47,20.71-21.26,20.72-23.53,0-47.06,0-70.59,0-19.29.06-29.71,7.28-29.44,20.17.27,12.53,10.84,19.48,30.1,19.64,10,.09,20-.19,30,.07,34.61.88,61,26.52,61.73,59.75.72,33.52-26.49,61.19-61.35,62.09C106.23,602.07,93.28,601.79,80.34,601.79Z" transform="translate(-18.04 -35.22)"/><path class="cls-3" d="M455.63,601.79c-12.33,0-24.67.26-37,0-48.21-1.22-76.47-49.7-52.91-91.68,4.41-7.85,3.91-12.39-.35-20-21.94-39.18,1.92-86.28,46.79-90.33,28.55-2.58,57.5-1.16,86.26-.81,13,.15,21.6,7.66,21.23,20.9-.4,14.07-9.45,20.38-23.54,20.23-23.49-.26-47,.07-70.47-.12-13.69-.11-25,3.14-26.59,19-1.26,12.86,8.78,20.48,26.54,20.81,14.09.25,28.19-.1,42.28.13,13.37.23,21.11,6.95,20.83,20.67s-8.2,20-21.51,20q-22,0-44.05,0c-13.62-.05-23.79,5.7-24,19.9-.2,14.49,9.77,19.82,23.7,19.6,23.49-.37,47-.25,70.48-.05,17.23.16,27.51,8.12,26.43,21.19-1.35,16.31-12.26,21.11-27.14,20.64C480.31,601.48,468,601.8,455.63,601.79Z" transform="translate(-18.04 -35.22)"/><path class="cls-3" d="M628.26,601.79c-12.34,0-24.69.33-37-.06C544,600.24,515.72,552.11,538.66,511c4.71-8.45,4.48-13.2-.12-21.5-21.46-38.75,1.89-85.25,46-89.42,29.12-2.76,58.67-1.46,88-.94,12.77.23,21.08,7.78,20.32,21.49S683.45,440,670.41,440c-24.09,0-48.18.13-72.27,0-13.94-.09-25.22,3.92-25.43,19.93-.21,16.51,11.89,19.77,25.39,19.92,14.1.15,28.2,0,42.3.07,13.3,0,21.89,6.68,22.05,19.86.17,14-8.14,21.19-22.59,20.92-14.1-.26-28.2,0-42.3-.07s-25.09,4.48-24.84,20.47c.24,15,10.59,19.21,24.15,19,23.5-.32,47,0,70.5-.12,14.07-.07,24.47,4.51,25.52,20.26.91,13.84-8.19,21.26-25.85,21.53C654.11,602,641.18,601.8,628.26,601.79Z" transform="translate(-18.04 -35.22)"/><path class="cls-3" d="M942.55,601.79c-12.36,0-24.72.26-37.06,0-47.62-1.18-75.83-48.36-53.54-90.25,4.24-8,5.19-13,.39-21.71-22-39.71,2-86.19,47.18-90.08,28.61-2.47,57.59-1.27,86.38-.66,12.82.28,21.15,8.07,20.45,21.58s-9.16,19.46-22.42,19.4c-24.12-.11-48.24.19-72.35-.1-14.24-.17-25.29,4.5-25.43,20.09-.15,16.15,11.87,19.85,25.6,19.84,12.94,0,25.88.14,38.82,0,14.06-.19,25.09,4,25.17,20.15.07,15.8-10.1,21-24.57,20.71-14.11-.28-28.24-.22-42.35,0-13.73.21-23.25,6.47-22.67,21,.54,13.79,10.16,18.5,23.16,18.36,24.11-.25,48.23,0,72.35-.1,14.43-.07,24.7,5.65,24.62,21.07s-10.53,21-24.91,20.79C968.43,601.66,955.49,601.8,942.55,601.79Z" transform="translate(-18.04 -35.22)"/><path class="cls-3" d="M252.34,514.11c0-18.82-1.05-37.71.3-56.43,1.1-15.23-4.54-19.85-18.79-17.83-6.34.9-12.91.21-19.38.12-13.27-.2-21.57-6.93-21.87-20.14-.31-13.49,8.6-20.3,21.33-20.93,14.66-.73,29.39-.23,44.09-.24,23.53,0,47.05-.24,70.57.08,18,.25,26.85,7.7,25.92,21.56-1.06,15.93-11.63,19.67-25.69,19.82-34.71.38-34.7.63-34.7,34.61s-.28,68.22.13,102.33c.16,14-5.4,22.81-19.44,24.51-12.27,1.48-21.88-8.64-22.31-24C251.92,556.46,252.36,535.28,252.34,514.11Z" transform="translate(-18.04 -35.22)"/><path class="cls-4" d="M204.57,777.26c4.28.55,6.43.74,12.73,3.86,80.7,35.88,116.46,45.11,180.2,39C506.17,809.59,587,754.52,639.58,658.72c3.18-5.8,3-13.45,4.38-20.24a85.9,85.9,0,0,1,8.72-.81c23.66.08,31.51,11.11,18,30.78-21.8,31.65-43.39,64.84-71.28,90.66-105.07,97.27-269.32,106.54-387,25C209.51,782.2,207.15,779.57,204.57,777.26Z" transform="translate(-18.04 -35.22)"/><path class="cls-4" d="M573,223c-6.72-1.05-15.67-6.91-21.34-9.86-89.16-46.42-180.21-48.17-271.13-7.9-63.08,27.94-109.88,75.19-141.81,136.54-2.8,5.37-2.45,12.39-3.56,18.65-4.09.24-8.21,1-12.26.65-18.81-1.47-24.08-9.77-16-27,16.7-35.56,40.73-65.82,69.41-92.44C281.85,143.71,440.34,136.46,565,216,567.77,217.77,573,222,573,223Z" transform="translate(-18.04 -35.22)"/><path class="cls-3" d="M714.17,501.22c0-24.67,0-49.34,0-74,.06-19.12,7.08-28.5,21-28.32,13.2.17,20.68,10.39,20.75,29.13.13,37.59.72,75.2-.3,112.77-.4,14.69,2.23,21.35,18.77,19.57,15.68-1.68,31.68-.45,47.54-.32,13.46.11,23.45,5.56,23.65,20.19.22,15.31-9.38,21.63-24,21.59-27.61-.08-55.22.21-82.82-.11-17.55-.2-24.35-7.16-24.52-24.72C714,551.74,714.17,526.48,714.17,501.22Z" transform="translate(-18.04 -35.22)"/><path class="cls-4" d="M194,769.15c3.25,2.48,6.5,5,9.72,7.45Q198.88,772.88,194,769.15Z" transform="translate(-18.04 -35.22)"/><path class="cls-4" d="M188.58,764.15l5.65,5.1C192.34,767.56,190.46,765.85,188.58,764.15Z" transform="translate(-18.04 -35.22)"/></g></svg>